<svg width="313" height="450" viewBox="0 0 313 450" fill="none" xmlns="http://www.w3.org/2000/svg">
<path d="M284.307 291.706L268.906 274.369L235.929 303.652L251.33 320.989L284.307 291.706Z" fill="#CBD1D7"/>
<path d="M265.813 306.155C265.536 306.153 265.263 306.095 265.009 305.985C264.755 305.875 264.525 305.716 264.334 305.516C264.146 305.33 263.997 305.109 263.896 304.865C263.794 304.622 263.742 304.36 263.742 304.097C263.742 303.833 263.794 303.571 263.896 303.328C263.997 303.084 264.146 302.863 264.334 302.677L276.05 292.123C276.447 291.804 276.952 291.649 277.46 291.689C277.968 291.729 278.442 291.962 278.784 292.34C279.126 292.718 279.311 293.212 279.301 293.722C279.29 294.231 279.086 294.718 278.729 295.081L267.013 305.636C266.69 305.95 266.263 306.135 265.813 306.155Z" fill="#8DA4B7"/>
<path d="M265.57 307.315C265.108 307.323 264.657 307.166 264.298 306.874C263.939 306.581 263.696 306.171 263.611 305.716C263.158 302.652 261.825 299.785 259.773 297.465C257.722 295.144 255.04 293.469 252.055 292.643C251.55 292.519 251.113 292.203 250.837 291.763C250.561 291.323 250.467 290.792 250.575 290.284C250.627 290.028 250.73 289.784 250.878 289.569C251.025 289.353 251.215 289.168 251.435 289.027C251.654 288.885 251.9 288.789 252.158 288.744C252.416 288.699 252.68 288.706 252.935 288.765C256.639 289.754 259.981 291.788 262.561 294.623C265.142 297.458 266.853 300.976 267.49 304.756C267.584 305.28 267.47 305.82 267.171 306.261C266.872 306.702 266.412 307.008 265.89 307.115L265.57 307.315Z" fill="#8DA4B7"/>
<path d="M251.656 322.028C251.412 322.027 251.171 321.973 250.95 321.87C250.729 321.766 250.534 321.616 250.377 321.429L234.862 303.878C234.582 303.525 234.428 303.089 234.422 302.639C234.456 302.176 234.671 301.744 235.022 301.439L251.376 286.887C251.536 286.726 251.726 286.599 251.936 286.512C252.145 286.425 252.369 286.38 252.596 286.38C252.823 286.38 253.047 286.425 253.257 286.512C253.466 286.599 253.656 286.726 253.816 286.887C254.131 287.215 254.307 287.652 254.307 288.107C254.307 288.561 254.131 288.998 253.816 289.326L238.701 302.719L251.936 317.591L282.327 290.605L269.611 276.253L259.974 284.249C259.624 284.546 259.17 284.691 258.713 284.654C258.255 284.616 257.831 284.399 257.534 284.049C257.238 283.699 257.092 283.245 257.129 282.788C257.167 282.331 257.384 281.907 257.734 281.61L268.691 272.335C268.847 272.175 269.034 272.049 269.24 271.962C269.446 271.876 269.667 271.831 269.891 271.831C270.114 271.831 270.335 271.876 270.541 271.962C270.747 272.049 270.934 272.175 271.09 272.335L286.045 289.246C286.358 289.567 286.533 289.997 286.533 290.445C286.533 290.893 286.358 291.324 286.045 291.645L253.056 320.949C252.932 321.232 252.739 321.479 252.494 321.668C252.25 321.856 251.962 321.98 251.656 322.028Z" fill="#332D28"/>
<path d="M287.728 294.003L270.773 290.245C269.655 289.964 268.642 289.367 267.854 288.526C266.928 287.816 266.222 286.86 265.815 285.767L260.457 269.216C259.848 267.281 259.753 265.22 260.181 263.237C260.609 261.254 261.544 259.415 262.896 257.902L273.532 246.228C274.073 245.633 274.726 245.149 275.454 244.805C276.182 244.462 276.97 244.265 277.774 244.226C278.578 244.187 279.382 244.307 280.139 244.578C280.897 244.85 281.594 245.268 282.19 245.809C282.786 246.349 283.269 247.002 283.613 247.73C283.957 248.457 284.154 249.246 284.193 250.049C284.232 250.853 284.112 251.657 283.84 252.414C283.569 253.172 283.15 253.868 282.61 254.464L272.253 265.858L276.532 278.971L289.967 281.929L300.324 270.575C301.416 269.372 302.942 268.652 304.566 268.573C305.369 268.534 306.173 268.654 306.931 268.925C307.688 269.197 308.385 269.615 308.981 270.156C309.577 270.696 310.061 271.349 310.404 272.077C310.748 272.804 310.945 273.593 310.984 274.396C311.023 275.2 310.903 276.004 310.632 276.761C310.36 277.519 309.942 278.215 309.401 278.811L298.764 290.485C297.4 291.994 295.659 293.114 293.721 293.732C291.782 294.35 289.714 294.443 287.728 294.003Z" fill="#545655"/>
<path d="M120.941 434.328H81.9935L73.9961 357.729H128.939L120.941 434.328Z" fill="#CBD1D7"/>
<path d="M126.862 359.728H75.0391V377.798H126.862V359.728Z" fill="#8DA4B7"/>
<path d="M79.5933 413.058C79.1636 413.06 78.7489 412.901 78.4307 412.613C78.1124 412.324 77.9138 411.927 77.8738 411.499L75.2347 386.433C75.2127 386.207 75.2356 385.979 75.3022 385.762C75.3689 385.545 75.4778 385.343 75.6228 385.168C75.7678 384.994 75.9459 384.849 76.147 384.744C76.348 384.638 76.568 384.574 76.7942 384.554C77.018 384.526 77.2452 384.544 77.462 384.606C77.6789 384.668 77.8811 384.773 78.0565 384.914C78.2319 385.056 78.3769 385.232 78.4829 385.431C78.589 385.63 78.6538 385.848 78.6736 386.073L81.2727 411.14C81.3064 411.364 81.293 411.593 81.2334 411.813C81.1737 412.032 81.0692 412.236 80.9263 412.413C80.7834 412.59 80.6053 412.735 80.4034 412.839C80.2014 412.943 79.98 413.004 79.7532 413.019L79.5933 413.058Z" fill="#332D28"/>
<path d="M120.941 436.046H81.9935C81.5701 436.049 81.1605 435.895 80.8433 435.615C80.526 435.335 80.3233 434.947 80.2741 434.527L78.7946 420.414C78.7468 419.958 78.8822 419.502 79.1709 419.146C79.4596 418.79 79.878 418.563 80.3341 418.515C80.7901 418.468 81.2464 418.603 81.6026 418.892C81.9588 419.18 82.1857 419.599 82.2335 420.054L83.553 432.608H119.542L127.179 359.487H76.1154L78.0348 377.917C78.0673 378.177 78.04 378.441 77.955 378.688C77.87 378.936 77.7296 379.161 77.5444 379.346C77.3593 379.531 77.1343 379.671 76.8867 379.756C76.639 379.841 76.3752 379.868 76.1154 379.836C75.8916 379.864 75.6644 379.846 75.4475 379.784C75.2307 379.722 75.0285 379.617 74.8531 379.475C74.6777 379.334 74.5327 379.158 74.4266 378.959C74.3206 378.76 74.2558 378.541 74.236 378.317L72.1167 357.928C72.0947 357.687 72.1225 357.444 72.1985 357.215C72.2745 356.985 72.397 356.774 72.5583 356.594C72.7197 356.414 72.9164 356.269 73.1363 356.168C73.3561 356.068 73.5944 356.013 73.8361 356.009H128.939C129.18 356.013 129.419 356.068 129.638 356.168C129.858 356.269 130.055 356.414 130.216 356.594C130.378 356.774 130.5 356.985 130.576 357.215C130.652 357.444 130.68 357.687 130.658 357.928L122.661 434.527C122.611 434.947 122.409 435.335 122.091 435.615C121.774 435.895 121.364 436.049 120.941 436.046Z" fill="#332D28"/>
<path d="M116.702 421.936C117.519 421.936 118.182 421.274 118.182 420.457C118.182 419.64 117.519 418.978 116.702 418.978C115.885 418.978 115.223 419.64 115.223 420.457C115.223 421.274 115.885 421.936 116.702 421.936Z" fill="#332D28"/>
<path d="M127.46 448.28H75.4766L79.4753 430.25H123.461L127.46 448.28Z" fill="#545655"/>
<path d="M90.2318 430.25L86.2331 448.32H75.4766L79.4753 430.25H90.2318Z" fill="#6D6D6D"/>
<path d="M127.138 448.32H116.382L112.383 430.25H123.139L127.138 448.32Z" fill="#303331"/>
<path d="M127.455 449.999H75.4717C75.2161 450.008 74.9621 449.955 74.732 449.843C74.5019 449.732 74.3027 449.566 74.1521 449.359C73.9954 449.157 73.8825 448.925 73.8205 448.677C73.7586 448.429 73.7489 448.171 73.7922 447.92L77.7909 429.849C77.8874 429.476 78.104 429.144 78.4075 428.906C78.711 428.667 79.0845 428.535 79.4704 428.53H96.5049C96.961 428.53 97.3983 428.711 97.7208 429.034C98.0432 429.356 98.2244 429.793 98.2244 430.249C98.2142 430.702 98.0298 431.133 97.7095 431.453C97.3892 431.774 96.9578 431.958 96.5049 431.968H80.8699L77.631 446.56H125.296L122.057 431.808H104.542C104.317 431.808 104.093 431.764 103.884 431.677C103.676 431.591 103.486 431.464 103.327 431.305C103.167 431.145 103.04 430.956 102.954 430.747C102.867 430.538 102.823 430.315 102.823 430.089C102.823 429.633 103.004 429.196 103.327 428.874C103.649 428.551 104.086 428.37 104.542 428.37H123.456C123.842 428.375 124.216 428.507 124.519 428.746C124.823 428.984 125.039 429.316 125.136 429.689L129.135 447.76C129.178 448.011 129.168 448.269 129.106 448.517C129.044 448.765 128.931 448.997 128.775 449.199C128.643 449.435 128.452 449.633 128.221 449.773C127.989 449.914 127.725 449.991 127.455 449.999Z" fill="#332D28"/>
<path d="M185.562 434.328H146.615L138.617 357.729H193.56L185.562 434.328Z" fill="#CBD1D7"/>
<path d="M191.476 359.728H139.652V377.798H191.476V359.728Z" fill="#8DA4B7"/>
<path d="M144.095 413.058C143.665 413.06 143.251 412.901 142.932 412.613C142.614 412.324 142.415 411.927 142.376 411.499L140.096 386.433C140.063 386.208 140.076 385.979 140.136 385.76C140.195 385.54 140.3 385.336 140.443 385.159C140.586 384.982 140.764 384.837 140.966 384.733C141.168 384.629 141.389 384.568 141.616 384.554C141.84 384.526 142.067 384.544 142.284 384.606C142.501 384.668 142.703 384.773 142.878 384.914C143.053 385.056 143.199 385.232 143.305 385.431C143.411 385.63 143.475 385.848 143.495 386.073L146.134 411.14C146.156 411.365 146.133 411.593 146.067 411.811C146 412.028 145.891 412.229 145.746 412.404C145.601 412.579 145.423 412.723 145.222 412.828C145.021 412.934 144.801 412.998 144.575 413.019L144.095 413.058Z" fill="#332D28"/>
<path d="M185.558 436.046H146.611C146.188 436.049 145.778 435.895 145.461 435.615C145.143 435.335 144.941 434.947 144.891 434.527L143.412 420.414C143.364 419.958 143.5 419.502 143.788 419.146C144.077 418.79 144.495 418.563 144.951 418.515C145.407 418.468 145.864 418.603 146.22 418.892C146.576 419.18 146.803 419.599 146.851 420.054L148.09 432.608H184.079L191.677 359.487H140.533L142.452 377.917C142.5 378.373 142.365 378.829 142.076 379.185C141.787 379.541 141.369 379.768 140.913 379.816C140.457 379.864 140 379.728 139.644 379.44C139.288 379.151 139.061 378.733 139.013 378.277L136.894 357.928C136.872 357.687 136.9 357.444 136.976 357.215C137.052 356.985 137.174 356.774 137.336 356.594C137.497 356.414 137.694 356.269 137.914 356.168C138.133 356.068 138.372 356.013 138.613 356.009H193.556C193.8 356.01 194.041 356.064 194.262 356.168C194.483 356.271 194.679 356.422 194.835 356.608C194.995 356.787 195.116 356.996 195.191 357.223C195.267 357.45 195.296 357.689 195.275 357.928L187.278 434.527C187.229 434.947 187.026 435.335 186.709 435.615C186.391 435.895 185.982 436.049 185.558 436.046Z" fill="#332D28"/>
<path d="M192.076 448.28H140.133L144.132 430.25H188.077L192.076 448.28Z" fill="#545655"/>
<path d="M154.888 430.25L150.889 448.32H140.133L144.132 430.25H154.888Z" fill="#6D6D6D"/>
<path d="M191.759 448.32H181.003L177.004 430.25H187.76L191.759 448.32Z" fill="#303331"/>
<path d="M192.076 449.999H140.093C139.837 450.008 139.583 449.955 139.353 449.843C139.123 449.732 138.924 449.566 138.773 449.359C138.616 449.157 138.504 448.925 138.442 448.677C138.38 448.429 138.37 448.171 138.413 447.92L142.412 429.849C142.508 429.476 142.725 429.144 143.029 428.906C143.332 428.667 143.706 428.535 144.091 428.53H161.126C161.582 428.53 162.019 428.711 162.342 429.034C162.664 429.356 162.845 429.793 162.845 430.249C162.845 430.705 162.664 431.142 162.342 431.465C162.019 431.787 161.582 431.968 161.126 431.968H145.491L142.252 446.56H189.917L186.678 431.808H169.163C168.938 431.808 168.714 431.764 168.505 431.677C168.297 431.591 168.107 431.464 167.948 431.305C167.788 431.145 167.661 430.956 167.575 430.747C167.488 430.538 167.444 430.315 167.444 430.089C167.444 429.633 167.625 429.196 167.948 428.874C168.27 428.551 168.707 428.37 169.163 428.37H188.077C188.463 428.375 188.837 428.507 189.14 428.746C189.444 428.984 189.66 429.316 189.757 429.689L193.756 447.76C193.81 448.011 193.806 448.272 193.743 448.521C193.681 448.771 193.562 449.003 193.396 449.199C193.264 449.435 193.073 449.633 192.842 449.773C192.61 449.914 192.347 449.991 192.076 449.999Z" fill="#332D28"/>
<path d="M134.937 54.0499C134.733 54.0508 134.532 54.0085 134.345 53.9258C134.159 53.8431 133.993 53.7219 133.857 53.5701C133.581 53.2865 133.427 52.9064 133.427 52.5107C133.427 52.115 133.581 51.7349 133.857 51.4513L138.975 46.5739L127.379 9.11392C127.236 8.73221 127.25 8.30928 127.419 7.93815C127.588 7.56703 127.897 7.27812 128.279 7.13498C128.661 6.99184 129.084 7.00619 129.455 7.17489C129.826 7.34358 130.115 7.65279 130.258 8.0345L142.254 46.414C142.332 46.686 142.335 46.9736 142.265 47.2475C142.195 47.5214 142.053 47.7718 141.855 47.9731L136.096 53.6501C135.774 53.9247 135.36 54.0675 134.937 54.0499Z" fill="#332D28"/>
<path d="M134.497 102.105C134.195 102.102 133.9 102.009 133.651 101.839C133.402 101.668 133.209 101.426 133.098 101.145L119.582 66.164C119.469 65.8865 119.443 65.5811 119.507 65.2884C119.571 64.9957 119.723 64.7294 119.942 64.5248L129.099 56.0094C129.237 55.868 129.402 55.7556 129.584 55.6788C129.766 55.602 129.961 55.5625 130.159 55.5625C130.356 55.5625 130.552 55.602 130.734 55.6788C130.916 55.7556 131.081 55.868 131.218 56.0094C131.494 56.293 131.649 56.6731 131.649 57.0688C131.649 57.4646 131.494 57.8446 131.218 58.1283L122.781 66.124L136.097 99.9859C136.167 100.169 136.2 100.365 136.193 100.562C136.187 100.758 136.142 100.951 136.06 101.13C135.978 101.309 135.861 101.469 135.716 101.602C135.572 101.735 135.402 101.838 135.217 101.905C135.003 102.044 134.752 102.114 134.497 102.105Z" fill="#332D28"/>
<path d="M232.707 177.185H226.429V125.212H232.707C235.082 125.212 237.361 126.156 239.041 127.835C240.72 129.515 241.664 131.793 241.664 134.168V168.229C241.664 170.604 240.72 172.882 239.041 174.562C237.361 176.241 235.082 177.185 232.707 177.185Z" fill="#78C277"/>
<path d="M225.027 177.185H218.749V125.212H225.027C227.403 125.212 229.681 126.156 231.361 127.835C233.041 129.515 233.984 131.793 233.984 134.168V168.229C233.984 170.604 233.041 172.882 231.361 174.562C229.681 176.241 227.403 177.185 225.027 177.185Z" fill="#78C277"/>
<path d="M232.749 178.744H226.432C226.007 178.744 225.6 178.575 225.301 178.275C225.001 177.975 224.832 177.569 224.832 177.145V125.172C224.832 124.748 225.001 124.342 225.301 124.042C225.6 123.742 226.007 123.573 226.432 123.573H232.749C235.542 123.584 238.217 124.7 240.188 126.679C242.159 128.657 243.266 131.335 243.266 134.128V168.269C243.256 171.051 242.143 173.715 240.172 175.678C238.201 177.641 235.532 178.744 232.749 178.744ZM228.071 175.585H232.789C234.727 175.564 236.578 174.78 237.941 173.403C239.303 172.026 240.067 170.167 240.067 168.229V134.088C240.067 132.144 239.298 130.279 237.926 128.9C236.555 127.522 234.694 126.742 232.749 126.732H228.071V175.585Z" fill="#332D28"/>
<path d="M232.385 137.886C231.96 137.886 231.554 137.717 231.254 137.417C230.954 137.117 230.785 136.711 230.785 136.287V126.572C230.785 126.148 230.954 125.741 231.254 125.441C231.554 125.141 231.96 124.973 232.385 124.973C232.809 124.973 233.216 125.141 233.516 125.441C233.816 125.741 233.984 126.148 233.984 126.572V136.287C233.984 136.711 233.816 137.117 233.516 137.417C233.216 137.717 232.809 137.886 232.385 137.886Z" fill="#332D28"/>
<path d="M230.842 305.47L251.789 295.61L235.438 260.886L214.491 270.746L230.842 305.47Z" fill="#CBD1D7"/>
<path d="M224.749 289.726C231.147 274.854 240.984 272.775 240.984 272.775L235.426 260.781L215.832 270.216C215.832 270.216 222.55 294.883 224.749 289.726Z" fill="#8DA4B7"/>
<path d="M230.824 307.197C230.498 307.187 230.18 307.089 229.906 306.913C229.631 306.737 229.409 306.49 229.264 306.197L212.91 271.496C212.718 271.076 212.698 270.598 212.855 270.165C213.012 269.731 213.333 269.376 213.749 269.177L234.663 259.342C235.082 259.15 235.56 259.131 235.994 259.288C236.428 259.445 236.783 259.766 236.982 260.182L253.337 294.883C253.496 295.309 253.496 295.777 253.337 296.203C253.181 296.625 252.865 296.97 252.457 297.162L231.504 307.037C231.292 307.141 231.06 307.195 230.824 307.197ZM216.748 271.576L231.624 303.199L249.458 294.803L234.583 263.18L216.748 271.576Z" fill="#332D28"/>
<path d="M213.754 272.733C227.468 272.733 238.586 261.618 238.586 247.907C238.586 234.195 227.468 223.08 213.754 223.08C200.04 223.08 188.922 234.195 188.922 247.907C188.922 261.618 200.04 272.733 213.754 272.733Z" fill="#6D6D6D"/>
<path d="M207.555 276.972C221.269 276.972 232.387 265.856 232.387 252.145C232.387 238.434 221.269 227.318 207.555 227.318C193.84 227.318 182.723 238.434 182.723 252.145C182.723 265.856 193.84 276.972 207.555 276.972Z" fill="#545655"/>
<path d="M213.756 274.494C208.496 274.494 203.355 272.935 198.982 270.013C194.609 267.092 191.201 262.94 189.188 258.082C187.176 253.224 186.649 247.879 187.675 242.721C188.701 237.564 191.234 232.827 194.953 229.109C198.671 225.391 203.41 222.859 208.568 221.833C213.726 220.807 219.073 221.334 223.932 223.346C228.791 225.358 232.944 228.766 235.866 233.138C238.788 237.51 240.347 242.65 240.347 247.908C240.347 254.959 237.545 261.721 232.559 266.707C227.572 271.693 220.808 274.494 213.756 274.494ZM213.756 224.8C209.184 224.8 204.716 226.156 200.915 228.695C197.114 231.234 194.152 234.843 192.402 239.065C190.653 243.288 190.195 247.934 191.087 252.416C191.979 256.899 194.18 261.016 197.412 264.248C200.645 267.479 204.763 269.68 209.247 270.572C213.73 271.463 218.377 271.006 222.6 269.257C226.824 267.508 230.433 264.546 232.973 260.746C235.513 256.946 236.868 252.478 236.868 247.908C236.847 241.786 234.405 235.921 230.075 231.592C225.745 227.263 219.879 224.821 213.756 224.8Z" fill="#332D28"/>
<path d="M245.745 325.346C254.954 325.346 262.42 317.882 262.42 308.675C262.42 299.468 254.954 292.004 245.745 292.004C236.536 292.004 229.07 299.468 229.07 308.675C229.07 317.882 236.536 325.346 245.745 325.346Z" fill="#545655"/>
<path opacity="0.5" d="M245.743 319.349C243.631 319.349 241.567 318.723 239.811 317.55C238.056 316.377 236.687 314.71 235.879 312.759C235.071 310.809 234.86 308.662 235.272 306.592C235.684 304.521 236.7 302.619 238.194 301.126C239.687 299.634 241.589 298.617 243.66 298.205C245.731 297.793 247.878 298.005 249.829 298.813C251.78 299.62 253.447 300.989 254.62 302.744C255.793 304.499 256.42 306.563 256.42 308.674C256.42 310.076 256.143 311.464 255.607 312.759C255.07 314.054 254.284 315.231 253.292 316.222C252.301 317.213 251.124 318 249.829 318.536C248.533 319.072 247.145 319.349 245.743 319.349ZM245.743 302.038C244.421 302.038 243.128 302.43 242.029 303.166C240.93 303.901 240.074 304.946 239.57 306.169C239.065 307.391 238.936 308.735 239.197 310.032C239.457 311.328 240.097 312.517 241.035 313.449C241.973 314.381 243.167 315.014 244.465 315.267C245.763 315.52 247.107 315.382 248.326 314.871C249.546 314.359 250.586 313.498 251.315 312.394C252.044 311.291 252.429 309.996 252.421 308.674C252.421 307.799 252.248 306.933 251.912 306.125C251.576 305.318 251.083 304.584 250.463 303.967C249.842 303.351 249.105 302.863 248.295 302.531C247.486 302.2 246.618 302.033 245.743 302.038Z" fill="black"/>
<path d="M240.545 287.005C240.268 287.007 239.995 286.929 239.761 286.78C239.527 286.631 239.341 286.417 239.226 286.165L232.068 271.893C231.973 271.718 231.916 271.526 231.9 271.329C231.883 271.131 231.907 270.932 231.971 270.745C232.035 270.557 232.137 270.385 232.27 270.238C232.404 270.092 232.567 269.974 232.748 269.894C232.923 269.805 233.115 269.753 233.311 269.739C233.507 269.725 233.704 269.751 233.89 269.814C234.076 269.877 234.248 269.977 234.395 270.107C234.542 270.238 234.662 270.396 234.747 270.573L241.905 284.846C242.075 285.208 242.099 285.621 241.972 286.001C241.846 286.38 241.578 286.697 241.225 286.885C241.008 286.966 240.777 287.007 240.545 287.005Z" fill="#332D28"/>
<path d="M245.74 327.063C242.098 327.079 238.534 326.014 235.499 324.003C232.463 321.992 230.093 319.125 228.689 315.766C227.284 312.407 226.909 308.707 227.609 305.135C228.31 301.562 230.056 298.278 232.625 295.698C235.194 293.118 238.471 291.359 242.042 290.642C245.612 289.926 249.315 290.286 252.68 291.675C256.046 293.065 258.924 295.422 260.948 298.448C262.973 301.474 264.054 305.033 264.054 308.673C264.043 313.534 262.113 318.193 258.683 321.637C255.253 325.082 250.601 327.032 245.74 327.063ZM245.74 293.721C242.782 293.721 239.89 294.598 237.431 296.241C234.972 297.884 233.055 300.219 231.923 302.951C230.791 305.683 230.495 308.69 231.072 311.59C231.649 314.491 233.073 317.155 235.165 319.246C237.256 321.337 239.921 322.761 242.822 323.338C245.723 323.915 248.73 323.619 251.463 322.487C254.196 321.355 256.531 319.439 258.175 316.98C259.818 314.521 260.695 311.63 260.695 308.673C260.684 304.711 259.105 300.914 256.303 298.112C253.501 295.31 249.703 293.732 245.74 293.721Z" fill="#332D28"/>
<path d="M35.7284 301.697L12.668 304.169L17.3701 348.014L40.4306 345.542L35.7284 301.697Z" fill="#CBD1D7"/>
<path d="M36.686 341.577C36.1886 341.579 35.7082 341.396 35.3385 341.064C34.9688 340.731 34.7364 340.273 34.6867 339.778L33.1272 324.106C33.1009 323.844 33.1266 323.579 33.2028 323.326C33.2791 323.074 33.4043 322.838 33.5714 322.634C33.7385 322.43 33.9442 322.261 34.1767 322.136C34.4092 322.011 34.664 321.934 34.9266 321.907C35.1891 321.881 35.4543 321.907 35.7069 321.983C35.9595 322.059 36.1947 322.185 36.3989 322.352C36.6031 322.519 36.7724 322.724 36.8972 322.957C37.0219 323.189 37.0996 323.444 37.1259 323.706L38.6454 339.378C38.673 339.636 38.6493 339.896 38.5757 340.144C38.502 340.393 38.3798 340.624 38.2162 340.824C38.0526 341.025 37.8508 341.192 37.6224 341.314C37.3941 341.436 37.1438 341.512 36.886 341.537L36.686 341.577Z" fill="#8DA4B7"/>
<path d="M24.3697 328.862C21.1961 328.889 18.0648 328.134 15.2526 326.663C15.0127 326.535 14.8021 326.359 14.634 326.145C14.466 325.932 14.3443 325.686 14.2766 325.422C14.2089 325.159 14.1967 324.885 14.2408 324.617C14.2849 324.348 14.3844 324.092 14.5328 323.865C14.7932 323.404 15.2257 323.065 15.7354 322.923C16.2451 322.781 16.7904 322.846 17.2519 323.105C20.0099 324.484 23.1078 325.037 26.1726 324.696C29.2374 324.356 32.1385 323.137 34.5264 321.186C34.9542 320.878 35.4847 320.748 36.0065 320.822C36.5284 320.897 37.0011 321.17 37.3255 321.586C37.4831 321.796 37.5977 322.035 37.6628 322.289C37.728 322.543 37.7424 322.808 37.7053 323.068C37.6682 323.328 37.5802 323.578 37.4464 323.804C37.3127 324.03 37.1357 324.227 36.9257 324.384C33.3602 327.241 28.9385 328.818 24.3697 328.862Z" fill="#8DA4B7"/>
<path d="M55.6153 270.208L34.668 260.349L18.3172 295.073L39.2646 304.932L55.6153 270.208Z" fill="#CBD1D7"/>
<path d="M47.603 291.162C44.204 282.626 37.5615 275.784 29.1289 272.133L34.6471 260.379L55.6004 270.214C55.6004 270.214 49.8023 296.32 47.603 291.162Z" fill="#8DA4B7"/>
<path d="M39.2477 306.674C39.0092 306.711 38.7664 306.711 38.5279 306.674L17.5746 296.639C17.1685 296.44 16.8547 296.092 16.6983 295.668C16.542 295.244 16.5551 294.775 16.7349 294.36L21.5334 284.206C21.7296 283.792 22.082 283.474 22.5132 283.32C22.9444 283.166 23.419 283.19 23.8326 283.386C24.2462 283.582 24.565 283.935 24.7187 284.366C24.8724 284.797 24.8486 285.272 24.6524 285.685L20.6536 294.28L38.448 302.676L53.3632 271.053L35.5289 262.657L28.1312 278.529C28.0437 278.744 27.9134 278.94 27.7482 279.103C27.583 279.267 27.3863 279.395 27.17 279.481C26.9538 279.566 26.7224 279.607 26.49 279.6C26.2575 279.594 26.0288 279.54 25.8177 279.443C25.6066 279.345 25.4174 279.206 25.2616 279.033C25.1058 278.861 24.9867 278.658 24.9114 278.438C24.8361 278.219 24.8062 277.986 24.8236 277.754C24.8409 277.522 24.9051 277.296 25.0122 277.09L33.2096 259.619C33.4181 259.209 33.7758 258.894 34.2093 258.739C34.4179 258.65 34.6423 258.604 34.8691 258.604C35.0959 258.604 35.3203 258.65 35.5289 258.739L56.4422 268.574C56.8583 268.773 57.1795 269.128 57.3365 269.562C57.4936 269.996 57.474 270.474 57.2819 270.893L40.9272 305.594C40.7996 305.93 40.5676 306.216 40.2653 306.411C39.963 306.605 39.6063 306.697 39.2477 306.674Z" fill="#332D28"/>
<path d="M172.567 213.646H98.0312V222.682H172.567V213.646Z" fill="#545655"/>
<path d="M172.567 222.681H98.0312V231.716H172.567V222.681Z" fill="#545655"/>
<path d="M172.567 200.971H98.0312V210.006H172.567V200.971Z" fill="#303331"/>
<path d="M172.567 210.009H98.0312V219.044H172.567V210.009Z" fill="#303331"/>
<path d="M172.485 215.525H144.734V232.476H172.485V215.525Z" fill="#303331"/>
<path d="M37.9259 125.132H44.1239V177.104H37.9259C35.5503 177.104 33.272 176.161 31.5922 174.481C29.9124 172.802 28.9688 170.524 28.9688 168.149V134.087C28.9688 131.712 29.9124 129.434 31.5922 127.755C33.272 126.075 35.5503 125.132 37.9259 125.132Z" fill="#78C277"/>
<path d="M44.8868 125.132H51.1648V177.104H44.8868C42.5112 177.104 40.233 176.161 38.5532 174.481C36.8734 172.802 35.9297 170.524 35.9297 168.149V134.087C35.9297 131.712 36.8734 129.434 38.5532 127.755C40.233 126.075 42.5112 125.132 44.8868 125.132Z" fill="#78C277"/>
<path d="M207.031 89.3936H63.517C52.8502 89.3936 44.2031 98.0388 44.2031 108.703V193.418C44.2031 204.082 52.8502 212.728 63.517 212.728H207.031C217.698 212.728 226.345 204.082 226.345 193.418V108.703C226.345 98.0388 217.698 89.3936 207.031 89.3936Z" fill="#545655"/>
<path d="M224.832 108.743V193.418C224.832 198.543 222.799 203.458 219.178 207.086C215.557 210.714 210.644 212.757 205.518 212.768H189.523C194.649 212.757 199.562 210.714 203.183 207.086C206.804 203.458 208.837 198.543 208.837 193.418V108.743C208.837 103.618 206.804 98.7027 203.183 95.075C199.562 91.4474 194.649 89.4041 189.523 89.3936H205.518C210.644 89.4041 215.557 91.4474 219.178 95.075C222.799 98.7027 224.832 103.618 224.832 108.743Z" fill="#303331"/>
<path d="M45.207 108.743V193.418C45.207 198.543 47.2406 203.458 50.8615 207.086C54.4824 210.714 59.3948 212.757 64.5209 212.768H80.3158C75.1898 212.757 70.2773 210.714 66.6564 207.086C63.0355 203.458 61.002 198.543 61.002 193.418V108.743C61.002 103.618 63.0355 98.7027 66.6564 95.075C70.2773 91.4474 75.1898 89.4041 80.3158 89.3936H64.5209C59.3948 89.4041 54.4824 91.4474 50.8615 95.075C47.2406 98.7027 45.207 103.618 45.207 108.743Z" fill="#6D6D6D"/>
<path d="M56.3203 272.213C70.0347 272.213 81.1524 261.098 81.1524 247.386C81.1524 233.675 70.0347 222.56 56.3203 222.56C42.606 222.56 31.4883 233.675 31.4883 247.386C31.4883 261.098 42.606 272.213 56.3203 272.213Z" fill="#6D6D6D"/>
<path d="M62.5196 276.451C76.2339 276.451 87.3516 265.336 87.3516 251.625C87.3516 237.913 76.2339 226.798 62.5196 226.798C48.8052 226.798 37.6875 237.913 37.6875 251.625C37.6875 265.336 48.8052 276.451 62.5196 276.451Z" fill="#545655"/>
<path d="M17.7745 350.451C17.371 350.436 16.9856 350.28 16.6859 350.009C16.3861 349.739 16.1911 349.371 16.135 348.972L14.2956 334.699C14.2389 334.249 14.3626 333.794 14.6398 333.435C14.917 333.075 15.3251 332.84 15.7752 332.78C16.2266 332.742 16.6763 332.872 17.0378 333.145C17.3994 333.418 17.6475 333.815 17.7345 334.259L19.334 346.853L38.4079 344.774L33.9693 304.356L13.9757 306.474L16.135 326.464C16.1329 326.887 15.9748 327.294 15.691 327.608C15.4071 327.922 15.0175 328.12 14.5967 328.165C14.1758 328.209 13.7533 328.097 13.4101 327.849C13.0668 327.602 12.8268 327.237 12.7361 326.823L10.3769 305.035C10.3658 304.799 10.4035 304.564 10.4875 304.343C10.5714 304.123 10.7 303.922 10.865 303.753C11.0301 303.584 11.2282 303.451 11.4469 303.362C11.6656 303.273 11.9003 303.23 12.1363 303.236L35.3289 300.717C35.7901 300.689 36.2456 300.831 36.6085 301.117C36.7844 301.257 36.9288 301.433 37.0321 301.633C37.1355 301.833 37.1955 302.052 37.2083 302.277L41.9268 346.253C41.9723 346.708 41.8392 347.162 41.5556 347.52C41.272 347.878 40.8602 348.112 40.4073 348.172L17.9345 350.611L17.7745 350.451Z" fill="#332D28"/>
<path d="M56.322 273.934C49.2764 273.934 42.5188 271.139 37.5331 266.162C32.5473 261.185 29.7411 254.433 29.7305 247.389C29.728 244.349 30.2557 241.332 31.29 238.473C31.4438 238.044 31.7619 237.693 32.1743 237.498C32.5868 237.303 33.0598 237.28 33.4893 237.434C33.9188 237.588 34.2696 237.906 34.4646 238.318C34.6596 238.73 34.6827 239.203 34.5289 239.633C32.5875 245.031 32.7243 250.959 34.9125 256.263C37.1008 261.566 41.1841 265.866 46.368 268.326C51.5519 270.786 57.4658 271.23 62.9591 269.572C68.4525 267.914 73.1324 264.272 76.0884 259.355C79.0445 254.437 80.0653 248.597 78.9522 242.969C77.8392 237.34 74.6719 232.328 70.0666 228.905C65.4612 225.483 59.7471 223.895 54.0359 224.452C48.3248 225.009 43.0249 227.67 39.1675 231.917C38.8548 232.214 38.442 232.383 38.0107 232.39C37.5795 232.397 37.1613 232.241 36.8392 231.955C36.5172 231.668 36.3146 231.271 36.2719 230.841C36.2291 230.412 36.3492 229.983 36.6083 229.638C39.5727 226.356 43.3104 223.866 47.4818 222.395C51.6532 220.924 56.1262 220.518 60.4944 221.214C64.8626 221.91 68.9876 223.686 72.4948 226.381C76.0019 229.076 78.7801 232.604 80.5769 236.645C82.3738 240.686 83.1323 245.112 82.7837 249.521C82.435 253.93 80.9902 258.181 78.5806 261.89C76.1709 265.598 72.8727 268.646 68.9855 270.757C65.0983 272.867 60.7453 273.973 56.322 273.974V273.934Z" fill="#332D28"/>
<path d="M203.074 367.043H67.4775C64.3642 367.039 61.3595 365.899 59.0261 363.839C56.6927 361.778 55.1907 358.938 54.8016 355.849L44.125 251.025C44.125 245.9 46.1586 240.985 49.7795 237.357C53.4004 233.73 58.3128 231.686 63.4388 231.676H207.033C212.159 231.686 217.071 233.73 220.692 237.357C224.313 240.985 226.347 245.9 226.347 251.025L215.75 355.849C215.361 358.938 213.859 361.778 211.526 363.839C209.192 365.899 206.187 367.039 203.074 367.043Z" fill="#545655"/>
<path d="M226.945 249.906L216.348 354.73C215.95 357.822 214.44 360.663 212.1 362.723C209.76 364.783 206.75 365.921 203.632 365.924H187.277C190.411 365.949 193.445 364.823 195.804 362.759C198.162 360.696 199.682 357.839 200.073 354.73L210.55 249.906C210.55 244.781 208.516 239.866 204.895 236.238C201.275 232.611 196.362 230.567 191.236 230.557H207.591C212.724 230.557 217.647 232.595 221.276 236.224C224.906 239.853 226.945 244.774 226.945 249.906Z" fill="#303331"/>
<path d="M44.4492 249.906L55.0458 354.73C55.444 357.822 56.9541 360.663 59.2941 362.723C61.6341 364.783 64.644 365.921 67.7618 365.924H84.1165C81.0032 365.919 77.9985 364.78 75.6651 362.719C73.3317 360.659 71.8297 357.818 71.4406 354.73L60.844 249.906C60.8439 244.788 62.872 239.879 66.4843 236.252C70.0965 232.626 74.9987 230.578 80.1178 230.557H63.803C58.6701 230.557 53.7474 232.595 50.1178 236.224C46.4883 239.853 44.4492 244.774 44.4492 249.906Z" fill="#6D6D6D"/>
<path d="M203.077 368.764H67.4806C63.9463 368.753 60.5366 367.457 57.8878 365.118C55.2389 362.779 53.5319 359.556 53.0852 356.051L50.726 332.543C50.6784 332.111 50.7964 331.677 51.0561 331.328C51.3157 330.98 51.6979 330.742 52.1255 330.664C52.3525 330.636 52.5827 330.655 52.8021 330.72C53.0215 330.784 53.2254 330.893 53.4014 331.039C53.5773 331.185 53.7216 331.365 53.8254 331.569C53.9292 331.772 53.9903 331.995 54.0049 332.223L56.5241 355.851C56.8558 358.522 58.1527 360.98 60.1706 362.762C62.1885 364.543 64.7883 365.526 67.4806 365.525H203.077C205.778 365.518 208.383 364.528 210.407 362.74C212.43 360.952 213.734 358.489 214.074 355.811L224.63 251.027C224.588 246.389 222.716 241.956 219.421 238.692C216.126 235.427 211.675 233.596 207.036 233.596H63.5219C58.8519 233.607 54.3768 235.469 51.0784 238.774C47.7799 242.079 45.9275 246.558 45.9275 251.227L53.1652 322.828C53.2101 323.278 53.0758 323.728 52.7913 324.08C52.5069 324.431 52.0953 324.657 51.6457 324.707C51.4197 324.729 51.1916 324.706 50.9745 324.64C50.7575 324.573 50.5558 324.464 50.381 324.319C50.2063 324.174 50.062 323.996 49.9565 323.795C49.851 323.594 49.7863 323.374 49.7663 323.148L42.4886 251.187C42.4728 248.411 43.0046 245.66 44.0536 243.09C45.1026 240.521 46.6481 238.183 48.6018 236.211C50.5554 234.239 52.8788 232.672 55.439 231.599C57.9992 230.526 60.7459 229.968 63.5219 229.958H207.036C212.618 229.969 217.968 232.193 221.911 236.143C225.855 240.093 228.069 245.446 228.069 251.027L217.473 355.851C217.071 359.392 215.384 362.663 212.73 365.043C210.077 367.423 206.642 368.747 203.077 368.764Z" fill="#332D28"/>
<path d="M189.641 353.61H80.9553C78.4489 353.619 76.0265 352.708 74.1471 351.05C72.2677 349.392 71.062 347.103 70.7585 344.615L62.2813 260.66C62.2812 256.553 63.9104 252.614 66.8114 249.706C69.7123 246.798 73.6484 245.159 77.7563 245.148H192.8C196.907 245.159 200.843 246.798 203.744 249.706C206.645 252.614 208.275 256.553 208.275 260.66L199.797 344.615C199.495 347.096 198.295 349.38 196.424 351.037C194.553 352.694 192.14 353.609 189.641 353.61Z" fill="#C0ECFF"/>
<path opacity="0.65" d="M100.709 353.611H80.9553C78.455 353.621 76.0376 352.716 74.1591 351.066C72.2807 349.416 71.0711 347.136 70.7585 344.656L62.2813 260.701C62.2812 256.594 63.9104 252.655 66.8114 249.747C69.7123 246.839 73.6484 245.2 77.7563 245.189H97.51C93.4021 245.2 89.466 246.839 86.565 249.747C83.664 252.655 82.0349 256.594 82.0349 260.701L90.5122 344.656C90.8247 347.136 92.0343 349.416 93.9128 351.066C95.7913 352.716 98.2087 353.621 100.709 353.611Z" fill="white"/>
<path d="M171.242 353.611H190.996C193.496 353.621 195.914 352.716 197.792 351.066C199.67 349.416 200.88 347.136 201.193 344.656L209.67 260.701C209.67 256.594 208.041 252.655 205.14 249.747C202.239 246.839 198.303 245.2 194.195 245.189H174.441C178.549 245.2 182.485 246.839 185.386 249.747C188.287 252.655 189.916 256.594 189.916 260.701L181.439 344.656C181.126 347.136 179.917 349.416 178.038 351.066C176.16 352.716 173.742 353.621 171.242 353.611Z" fill="#145B67"/>
<path d="M200.792 103.185H69.7936C62.5942 103.185 56.7578 109.02 56.7578 116.218V185.141C56.7578 192.339 62.5942 198.174 69.7936 198.174H200.792C207.991 198.174 213.828 192.339 213.828 185.141V116.218C213.828 109.02 207.991 103.185 200.792 103.185Z" fill="#C0ECFF"/>
<path d="M28.9694 161.553C28.5335 161.555 28.1134 161.39 27.7941 161.093C27.4749 160.796 27.2804 160.389 27.25 159.954V144.363C27.25 143.907 27.4312 143.469 27.7536 143.147C28.0761 142.825 28.5134 142.644 28.9694 142.644C29.4255 142.644 29.8628 142.825 30.1853 143.147C30.5077 143.469 30.6889 143.907 30.6889 144.363V159.954C30.6585 160.389 30.464 160.796 30.1448 161.093C29.8255 161.39 29.4054 161.555 28.9694 161.553Z" fill="#332D28"/>
<path d="M44.1257 178.743H37.9277C35.1348 178.743 32.4558 177.636 30.4772 175.666C28.4986 173.695 27.3817 171.021 27.3711 168.228C27.3711 167.804 27.5396 167.397 27.8396 167.098C28.1395 166.798 28.5464 166.629 28.9706 166.629C29.3948 166.629 29.8016 166.798 30.1016 167.098C30.4016 167.397 30.5701 167.804 30.5701 168.228C30.5701 170.179 31.3453 172.05 32.7251 173.43C34.1049 174.809 35.9763 175.584 37.9277 175.584H42.6062V126.731H37.9277C35.9763 126.731 34.1049 127.506 32.7251 128.885C31.3453 130.265 30.5701 132.136 30.5701 134.087C30.5701 134.511 30.4016 134.917 30.1016 135.217C29.8016 135.517 29.3948 135.686 28.9706 135.686C28.5464 135.686 28.1395 135.517 27.8396 135.217C27.5396 134.917 27.3711 134.511 27.3711 134.087C27.3711 131.287 28.4833 128.603 30.4631 126.624C32.4428 124.644 35.1279 123.532 37.9277 123.532H44.1257C44.5499 123.532 44.9568 123.701 45.2567 124.001C45.5567 124.301 45.7252 124.707 45.7252 125.131V177.104C45.7306 177.317 45.6931 177.529 45.6151 177.728C45.5372 177.926 45.4202 178.107 45.2711 178.26C45.1221 178.413 44.9439 178.534 44.7472 178.617C44.5505 178.7 44.3392 178.743 44.1257 178.743Z" fill="#332D28"/>
<path d="M172.52 224.399H98.0241C97.5681 224.399 97.1308 224.218 96.8083 223.896C96.4858 223.573 96.3047 223.136 96.3047 222.68V213.645C96.3047 213.189 96.4858 212.752 96.8083 212.429C97.1308 212.107 97.5681 211.926 98.0241 211.926H172.52C172.976 211.926 173.414 212.107 173.736 212.429C174.059 212.752 174.24 213.189 174.24 213.645V222.68C174.24 223.136 174.059 223.573 173.736 223.896C173.414 224.218 172.976 224.399 172.52 224.399ZM99.7436 220.961H170.801V215.364H99.7436V220.961Z" fill="#332D28"/>
<path d="M172.52 233.434H98.0241C97.5681 233.434 97.1308 233.253 96.8083 232.931C96.4858 232.608 96.3047 232.171 96.3047 231.715V222.68C96.3047 222.224 96.4858 221.787 96.8083 221.464C97.1308 221.142 97.5681 220.961 98.0241 220.961H116.658C117.114 220.961 117.552 221.142 117.874 221.464C118.196 221.787 118.378 222.224 118.378 222.68C118.378 223.136 118.196 223.573 117.874 223.896C117.552 224.218 117.114 224.399 116.658 224.399H99.7436V229.996H170.801V224.399H125.695C125.239 224.399 124.802 224.218 124.479 223.896C124.157 223.573 123.976 223.136 123.976 222.68C123.976 222.224 124.157 221.787 124.479 221.464C124.802 221.142 125.239 220.961 125.695 220.961H172.52C172.976 220.961 173.414 221.142 173.736 221.464C174.059 221.787 174.24 222.224 174.24 222.68V231.915C174.191 232.336 173.988 232.723 173.671 233.003C173.353 233.284 172.944 233.437 172.52 233.434Z" fill="#332D28"/>
<path d="M24.3348 324.826C33.544 324.826 41.0095 317.362 41.0095 308.154C41.0095 298.947 33.544 291.483 24.3348 291.483C15.1257 291.483 7.66016 298.947 7.66016 308.154C7.66016 317.362 15.1257 324.826 24.3348 324.826Z" fill="#545655"/>
<path opacity="0.5" d="M24.3299 318.828C22.2165 318.836 20.1484 318.217 18.3874 317.049C16.6264 315.88 15.2517 314.216 14.4375 312.266C13.6233 310.317 13.4061 308.169 13.8136 306.096C14.221 304.023 15.2347 302.117 16.7262 300.62C18.2178 299.123 20.1201 298.103 22.1922 297.688C24.2644 297.272 26.4131 297.481 28.3663 298.288C30.3196 299.095 31.9894 300.463 33.1643 302.219C34.3393 303.975 34.9664 306.041 34.9665 308.154C34.956 310.975 33.8333 313.678 31.8419 315.676C29.8506 317.674 27.1513 318.807 24.3299 318.828ZM24.3299 301.517C23.0057 301.509 21.7091 301.895 20.6049 302.626C19.5006 303.356 18.6385 304.399 18.1281 305.62C17.6177 306.842 17.4821 308.187 17.7385 309.486C17.9949 310.785 18.6317 311.978 19.568 312.915C20.5043 313.851 21.6979 314.487 22.997 314.744C24.2961 315 25.6421 314.864 26.8639 314.354C28.0857 313.844 29.1283 312.982 29.859 311.878C30.5897 310.774 30.9756 309.478 30.9677 308.154C30.9677 306.394 30.2684 304.706 29.0235 303.461C27.7787 302.216 26.0903 301.517 24.3299 301.517Z" fill="black"/>
<path d="M44.5257 346.173L29.4105 337.538C28.3983 336.981 27.2412 336.744 26.0916 336.858C24.942 336.744 23.7849 336.981 22.7726 337.538L7.65748 346.173C5.89863 347.184 4.43684 348.639 3.41905 350.394C2.40126 352.148 1.86333 354.139 1.85933 356.168V372.159C1.81674 373.006 1.94962 373.853 2.24965 374.646C2.54968 375.439 3.01039 376.162 3.60288 376.769C4.19538 377.376 4.90688 377.853 5.69279 378.173C6.4787 378.492 7.32207 378.645 8.17001 378.623C9.01795 378.601 9.85219 378.404 10.6204 378.044C11.3886 377.685 12.0743 377.17 12.6344 376.533C13.1944 375.896 13.6169 375.151 13.8752 374.343C14.1335 373.535 14.2221 372.683 14.1354 371.839V356.607L26.1316 349.771L38.1277 356.607V371.839C38.0593 372.687 38.1671 373.539 38.4445 374.343C38.7219 375.147 39.1628 375.884 39.7395 376.509C40.3161 377.134 41.016 377.633 41.795 377.974C42.5741 378.315 43.4153 378.492 44.2658 378.492C45.1162 378.492 45.9575 378.315 46.7365 377.974C47.5155 377.633 48.2154 377.134 48.7921 376.509C49.3687 375.884 49.8096 375.147 50.087 374.343C50.3644 373.539 50.4723 372.687 50.4038 371.839V355.848C50.3366 353.866 49.7605 351.936 48.731 350.241C47.7016 348.547 46.2534 347.146 44.5257 346.173Z" fill="#545655"/>
<path d="M44.1259 380.116C42.0048 380.116 39.9707 379.273 38.4708 377.774C36.971 376.275 36.1284 374.241 36.1284 372.12V357.888L26.0917 351.851L15.8549 357.888V372.24C16.0741 373.396 16.0355 374.585 15.7419 375.724C15.4484 376.863 14.9071 377.924 14.1567 378.83C13.4063 379.735 12.4652 380.465 11.4005 380.965C10.3359 381.466 9.17391 381.725 7.99744 381.725C6.82098 381.725 5.659 381.466 4.59436 380.965C3.52972 380.465 2.58863 379.735 1.83821 378.83C1.08779 377.924 0.546504 376.863 0.252956 375.724C-0.0405924 374.585 -0.0791763 373.396 0.139955 372.24V356.449C0.147627 354.123 0.764476 351.84 1.92908 349.827C3.09369 347.814 4.76542 346.141 6.77783 344.975L21.893 336.339C23.1964 335.615 24.6858 335.295 26.1716 335.42C27.5652 335.337 28.9532 335.656 30.1704 336.339L45.2455 344.975C47.3053 346.107 49.0275 347.766 50.2359 349.782C51.4443 351.798 52.0956 354.099 52.1233 356.449V372.24C52.0918 374.34 51.2354 376.343 49.7389 377.817C48.2425 379.29 46.2263 380.116 44.1259 380.116ZM26.0917 348.333C26.366 348.254 26.657 348.254 26.9314 348.333L38.9276 355.169C39.187 355.328 39.4007 355.552 39.5479 355.818C39.6951 356.084 39.7707 356.384 39.7673 356.688V372.24C39.7087 372.856 39.7793 373.476 39.9747 374.063C40.1701 374.65 40.4859 375.189 40.9019 375.646C41.3179 376.104 41.8249 376.469 42.3904 376.719C42.956 376.969 43.5675 377.098 44.1859 377.098C44.8042 377.098 45.4158 376.969 45.9813 376.719C46.5468 376.469 47.0538 376.104 47.4698 375.646C47.8858 375.189 48.2017 374.65 48.3971 374.063C48.5924 373.476 48.6631 372.856 48.6045 372.24V356.449C48.606 354.707 48.1486 352.995 47.2781 351.486C46.4076 349.977 45.1549 348.724 43.646 347.853L28.5709 339.338C27.8409 338.931 27.0019 338.763 26.1716 338.858C25.2942 338.76 24.4069 338.913 23.6124 339.298L8.49728 347.853C6.99311 348.726 5.74615 349.981 4.8825 351.49C4.01885 352.999 3.56915 354.71 3.57886 356.449V372.24C3.52023 372.856 3.59087 373.476 3.78626 374.063C3.98165 374.65 4.29747 375.189 4.71348 375.646C5.12949 376.104 5.6365 376.469 6.20202 376.719C6.76754 376.969 7.37908 377.098 7.99744 377.098C8.61581 377.098 9.22735 376.969 9.79287 376.719C10.3584 376.469 10.8654 376.104 11.2814 375.646C11.6974 375.189 12.0132 374.65 12.2086 374.063C12.404 373.476 12.4747 372.856 12.416 372.24V356.888C12.4127 356.584 12.4882 356.284 12.6354 356.018C12.7826 355.752 12.9963 355.528 13.2558 355.369L25.2519 348.533C25.5066 348.386 25.7983 348.317 26.0917 348.333Z" fill="#332D28"/>
<path opacity="0.65" d="M112.947 198.615H86.3555L129.582 103.985H156.173L112.947 198.615Z" fill="white"/>
<path opacity="0.65" d="M189.077 198.615H118.539L161.765 103.985H188.357L189.077 198.615Z" fill="white"/>
<path d="M199.233 192.417H170.083C169.627 192.417 169.189 192.236 168.867 191.913C168.544 191.591 168.363 191.154 168.363 190.698C168.363 190.242 168.544 189.804 168.867 189.482C169.189 189.16 169.627 188.979 170.083 188.979H199.233C199.689 188.979 200.127 189.16 200.449 189.482C200.772 189.804 200.953 190.242 200.953 190.698C200.953 191.154 200.772 191.591 200.449 191.913C200.127 192.236 199.689 192.417 199.233 192.417Z" fill="#332D28"/>
<path d="M164.446 192.417H157.169C156.713 192.417 156.275 192.236 155.953 191.913C155.63 191.591 155.449 191.154 155.449 190.698C155.449 190.242 155.63 189.804 155.953 189.482C156.275 189.16 156.713 188.979 157.169 188.979H164.446C164.902 188.979 165.34 189.16 165.662 189.482C165.985 189.804 166.166 190.242 166.166 190.698C166.166 191.154 165.985 191.591 165.662 191.913C165.34 192.236 164.902 192.417 164.446 192.417Z" fill="#332D28"/>
<path d="M187.603 347.214H163.211C163.013 347.22 162.817 347.185 162.632 347.113C162.448 347.041 162.28 346.933 162.139 346.795C161.997 346.657 161.885 346.493 161.808 346.31C161.731 346.128 161.691 345.933 161.691 345.735C161.691 345.332 161.851 344.946 162.136 344.661C162.421 344.376 162.808 344.216 163.211 344.216H187.603C187.999 344.226 188.375 344.391 188.652 344.675C188.928 344.958 189.083 345.339 189.083 345.735C189.083 345.929 189.044 346.122 188.97 346.301C188.896 346.481 188.787 346.644 188.649 346.781C188.512 346.918 188.349 347.027 188.169 347.102C187.99 347.176 187.797 347.214 187.603 347.214Z" fill="#332D28"/>
<path d="M57.5596 314.872C57.1362 314.875 56.7267 314.721 56.4094 314.441C56.0921 314.161 55.8894 313.773 55.8402 313.353L51.8415 279.211C51.8059 278.758 51.9427 278.309 52.2245 277.953C52.5063 277.597 52.9123 277.361 53.361 277.292C53.8156 277.246 54.2701 277.38 54.6283 277.663C54.9865 277.947 55.2203 278.358 55.2804 278.811L59.2791 312.953C59.3069 313.179 59.2896 313.408 59.228 313.627C59.1665 313.847 59.062 314.051 58.9207 314.23C58.7793 314.409 58.6039 314.557 58.4045 314.667C58.2052 314.778 57.986 314.847 57.7596 314.872H57.5596Z" fill="#332D28"/>
<path d="M10.6955 353.41C10.3216 353.402 9.96054 353.272 9.66688 353.041C9.37322 352.81 9.163 352.489 9.06806 352.127C8.97313 351.766 8.99867 351.383 9.1408 351.037C9.28293 350.692 9.53392 350.402 9.85572 350.211L22.9715 342.575C23.371 342.356 23.8403 342.299 24.2804 342.419C24.7205 342.538 25.0971 342.824 25.3308 343.215C25.4449 343.412 25.5189 343.629 25.5485 343.854C25.578 344.08 25.5626 344.309 25.5031 344.528C25.4436 344.747 25.3412 344.953 25.2018 345.132C25.0624 345.312 24.8888 345.462 24.691 345.574L11.5752 353.17C11.3089 353.327 11.0049 353.41 10.6955 353.41Z" fill="#332D28"/>
<path d="M29.5309 286.687C29.2811 286.747 29.0209 286.747 28.7711 286.687C28.5663 286.593 28.3825 286.459 28.2308 286.292C28.079 286.126 27.9623 285.93 27.8877 285.717C27.8131 285.505 27.782 285.279 27.7964 285.054C27.8108 284.83 27.8703 284.61 27.9714 284.408L35.1291 269.896C35.2308 269.693 35.3717 269.513 35.5436 269.365C35.7155 269.217 35.915 269.104 36.1305 269.034C36.3461 268.963 36.5736 268.936 36.7997 268.953C37.0259 268.971 37.2463 269.033 37.4483 269.137C37.6497 269.234 37.8295 269.371 37.9771 269.54C38.1247 269.708 38.2373 269.904 38.308 270.116C38.3788 270.328 38.4064 270.553 38.3893 270.776C38.3721 270.999 38.3105 271.216 38.2081 271.415L31.0504 285.728C30.9103 286.012 30.6942 286.252 30.426 286.422C30.1578 286.591 29.848 286.683 29.5309 286.687Z" fill="#332D28"/>
<path d="M24.3277 326.546C20.6897 326.546 17.1334 325.467 14.1085 323.447C11.0836 321.426 8.72598 318.554 7.33377 315.193C5.94156 311.833 5.5773 308.135 6.28704 304.568C6.99678 301.001 8.74865 297.724 11.3211 295.152C13.8936 292.58 17.1711 290.829 20.7392 290.119C24.3073 289.409 28.0058 289.774 31.3668 291.165C34.7279 292.557 37.6007 294.915 39.6219 297.939C41.643 300.963 42.7218 304.519 42.7218 308.156C42.7218 313.033 40.7839 317.711 37.3343 321.16C33.8848 324.608 29.2061 326.546 24.3277 326.546ZM24.3277 293.204C21.3699 293.204 18.4784 294.081 16.019 295.724C13.5597 297.367 11.6428 299.702 10.5109 302.434C9.37898 305.166 9.08281 308.172 9.65986 311.073C10.2369 313.973 11.6613 316.637 13.7528 318.728C15.8443 320.82 18.5091 322.244 21.4101 322.82C24.3111 323.397 27.3181 323.101 30.0508 321.97C32.7835 320.838 35.1192 318.922 36.7625 316.463C38.4058 314.004 39.2829 311.113 39.2829 308.156C39.2829 304.19 37.7073 300.387 34.9027 297.583C32.098 294.779 28.2941 293.204 24.3277 293.204Z" fill="#332D28"/>
<path d="M134.337 335.181C155.538 335.181 172.725 317.998 172.725 296.801C172.725 275.605 155.538 258.422 134.337 258.422C113.136 258.422 95.9492 275.605 95.9492 296.801C95.9492 317.998 113.136 335.181 134.337 335.181Z" fill="white"/>
<path d="M134.339 336.699C126.43 336.699 118.699 334.355 112.123 329.962C105.547 325.569 100.422 319.325 97.3954 312.02C94.3689 304.715 93.577 296.676 95.1199 288.921C96.6628 281.166 100.471 274.043 106.064 268.452C111.656 262.861 118.781 259.053 126.538 257.51C134.294 255.968 142.335 256.76 149.641 259.785C156.948 262.811 163.193 267.935 167.587 274.51C171.981 281.084 174.326 288.814 174.326 296.721C174.326 301.971 173.292 307.17 171.282 312.02C169.273 316.87 166.327 321.278 162.614 324.99C158.901 328.702 154.493 331.647 149.641 333.656C144.79 335.665 139.59 336.699 134.339 336.699ZM134.339 259.941C127.037 259.941 119.9 262.106 113.83 266.162C107.759 270.219 103.029 275.984 100.236 282.729C97.4439 289.474 96.7154 296.895 98.1427 304.054C99.5701 311.213 103.089 317.788 108.255 322.947C113.421 328.106 120.001 331.618 127.163 333.037C134.325 334.456 141.747 333.72 148.491 330.921C155.234 328.122 160.996 323.386 165.046 317.312C169.097 311.239 171.255 304.101 171.247 296.801C171.236 287.017 167.344 277.638 160.425 270.72C153.506 263.802 144.124 259.911 134.339 259.901V259.941Z" fill="#332D28"/>
<path d="M160.81 296.8C160.81 293.162 156.812 289.963 149.654 287.964C151.493 280.848 150.733 275.971 147.574 273.932C144.415 271.893 139.577 273.932 134.339 279.129C129.14 274.092 124.222 272.133 121.103 273.932C117.984 275.731 117.104 280.848 119.024 287.964C111.906 289.963 107.867 293.162 107.867 296.8C107.867 300.438 111.866 303.636 119.024 305.635C117.184 312.751 117.944 317.629 121.103 319.667C121.918 320.133 122.844 320.368 123.782 320.347C127.895 319.726 131.645 317.639 134.339 314.47C137.033 317.639 140.782 319.726 144.895 320.347C145.834 320.368 146.76 320.133 147.574 319.667C150.733 317.828 151.573 312.751 149.654 305.635C156.772 303.636 160.81 300.478 160.81 296.8ZM134.339 311.272C133.208 310.061 132.141 308.794 131.14 307.474H134.339H137.538C136.537 308.794 135.469 310.061 134.339 311.272ZM134.339 282.327C135.474 283.603 136.542 284.937 137.538 286.325C135.407 286.205 133.271 286.205 131.14 286.325C132.135 284.937 133.203 283.603 134.339 282.327ZM129.5 305.195C127.673 302.526 126.055 299.719 124.662 296.8C126.047 293.889 127.665 291.095 129.5 288.444C132.721 288.204 135.956 288.204 139.177 288.444C141.04 291.092 142.684 293.886 144.096 296.8C142.702 299.719 141.085 302.526 139.257 305.195C136.009 305.439 132.748 305.439 129.5 305.195ZM124.982 291.403L123.462 294.241C122.822 292.669 122.263 291.109 121.783 289.564C123.382 289.204 125.022 288.924 126.661 288.724L124.982 291.403ZM123.462 299.398L124.982 302.197L126.661 304.915C124.942 304.675 123.302 304.396 121.783 304.036C122.263 302.477 122.822 300.917 123.462 299.398ZM145.215 299.398C145.855 300.917 146.415 302.477 146.895 304.036C145.295 304.396 143.656 304.675 142.016 304.915C143.176 303.116 144.096 301.277 145.215 299.398ZM145.215 294.241C144.244 292.348 143.176 290.507 142.016 288.724C143.656 288.924 145.295 289.204 146.895 289.564C146.415 291.109 145.855 292.669 145.215 294.241ZM146.455 275.851C148.654 277.09 149.054 281.488 147.535 287.405C145.185 286.907 142.808 286.547 140.417 286.325C139.086 284.378 137.644 282.51 136.098 280.728C140.097 276.531 144.296 274.572 146.455 275.891V275.851ZM122.223 275.851C122.693 275.57 123.235 275.431 123.782 275.451C127.302 276.116 130.481 277.981 132.779 280.728C131.11 282.5 129.548 284.369 128.101 286.325C125.707 286.525 123.329 286.886 120.983 287.405C119.623 281.488 120.103 277.09 122.223 275.891V275.851ZM110.226 296.8C110.226 294.281 113.825 291.762 119.703 290.083C120.423 292.382 121.305 294.626 122.343 296.8C121.329 298.984 120.447 301.226 119.703 303.516C113.705 301.877 110.106 299.318 110.106 296.8H110.226ZM122.223 317.748C120.023 316.509 119.623 312.112 121.143 306.195C123.489 306.713 125.867 307.074 128.261 307.274C129.656 309.239 131.165 311.122 132.779 312.911C128.501 317.109 124.382 318.988 122.223 317.748ZM146.455 317.748C145.984 318.029 145.443 318.168 144.895 318.148C141.456 317.445 138.355 315.599 136.098 312.911C137.713 311.122 139.221 309.239 140.617 307.274C143.011 307.074 145.389 306.713 147.734 306.195C149.054 312.112 148.654 316.509 146.455 317.748ZM149.054 303.516C148.36 301.214 147.491 298.969 146.455 296.8C147.497 294.633 148.366 292.387 149.054 290.083C154.972 291.762 158.571 294.081 158.571 296.8C158.571 299.518 154.972 301.877 149.054 303.516Z" fill="#2F799C"/>
<path d="M134.34 301.52C136.946 301.52 139.058 299.408 139.058 296.802C139.058 294.197 136.946 292.085 134.34 292.085C131.734 292.085 129.621 294.197 129.621 296.802C129.621 299.408 131.734 301.52 134.34 301.52Z" fill="#2E7A9C"/>
<path d="M73.9181 327.866C73.5483 327.858 73.194 327.716 72.9216 327.466C72.6492 327.216 72.4775 326.875 72.4386 326.507L69.6395 301.68C69.6116 301.485 69.6241 301.286 69.6763 301.095C69.7286 300.905 69.8194 300.728 69.9431 300.574C70.0669 300.42 70.2209 300.294 70.3957 300.202C70.5705 300.11 70.7622 300.055 70.9591 300.041C71.3498 300.007 71.7387 300.125 72.0442 300.371C72.3498 300.617 72.5484 300.971 72.5986 301.36L75.4376 326.187C75.4727 326.582 75.3557 326.976 75.1105 327.288C74.8653 327.6 74.5104 327.807 74.1181 327.866H73.9181Z" fill="white"/>
<path d="M64.1205 157.515C63.5902 157.515 63.0816 157.305 62.7067 156.93C62.3317 156.555 62.1211 156.047 62.1211 155.516V125.133C62.1211 124.603 62.3317 124.094 62.7067 123.719C63.0816 123.344 63.5902 123.134 64.1205 123.134C64.6507 123.134 65.1593 123.344 65.5342 123.719C65.9092 124.094 66.1198 124.603 66.1198 125.133V155.516C66.1198 156.047 65.9092 156.555 65.5342 156.93C65.1593 157.305 64.6507 157.515 64.1205 157.515Z" fill="white"/>
<path d="M36.1328 159.953C35.9333 159.953 35.7357 159.914 35.5513 159.838C35.3669 159.761 35.1994 159.65 35.0583 159.508C34.9172 159.367 34.8053 159.2 34.7289 159.016C34.6526 158.831 34.6133 158.634 34.6133 158.434V140.324C34.6237 139.928 34.7884 139.552 35.0722 139.275C35.3561 138.999 35.7366 138.845 36.1328 138.845C36.5252 138.845 36.9015 139.001 37.179 139.278C37.4564 139.555 37.6123 139.932 37.6123 140.324V158.234C37.6474 158.448 37.6353 158.666 37.5768 158.874C37.5184 159.082 37.415 159.275 37.2739 159.439C37.1328 159.603 36.9576 159.734 36.7604 159.823C36.5633 159.912 36.349 159.956 36.1328 159.953Z" fill="white"/>
<path d="M24.3315 320.628C21.864 320.628 19.4519 319.897 17.4002 318.526C15.3485 317.156 13.7494 315.207 12.8052 312.928C11.8609 310.649 11.6138 308.141 12.0952 305.722C12.5766 303.302 13.7648 301.079 15.5096 299.335C17.2544 297.591 19.4774 296.403 21.8975 295.921C24.3176 295.44 26.8262 295.687 29.1058 296.631C31.3855 297.575 33.334 299.174 34.7049 301.225C36.0758 303.276 36.8075 305.688 36.8075 308.155C36.8075 311.463 35.4931 314.636 33.1534 316.975C30.8137 319.314 27.6403 320.628 24.3315 320.628ZM24.3315 299.16C22.5407 299.152 20.788 299.676 19.2957 300.666C17.8035 301.656 16.639 303.066 15.95 304.719C15.2611 306.371 15.0788 308.191 15.4262 309.948C15.7736 311.704 16.6351 313.318 17.9014 314.584C19.1676 315.85 20.7816 316.711 22.5383 317.058C24.2951 317.406 26.1154 317.223 27.7684 316.535C29.4213 315.846 30.8323 314.682 31.8223 313.19C32.8122 311.698 33.3365 309.945 33.3286 308.155C33.3181 305.773 32.3668 303.491 30.6818 301.806C28.9968 300.121 26.7144 299.17 24.3315 299.16Z" fill="#332D28"/>
<path d="M245.742 321.149C243.274 321.149 240.862 320.417 238.81 319.047C236.759 317.676 235.16 315.728 234.215 313.449C233.271 311.17 233.024 308.662 233.505 306.242C233.987 303.822 235.175 301.6 236.92 299.855C238.665 298.111 240.888 296.923 243.308 296.442C245.728 295.961 248.236 296.208 250.516 297.152C252.796 298.096 254.744 299.694 256.115 301.746C257.486 303.797 258.218 306.208 258.218 308.675C258.218 311.984 256.903 315.156 254.564 317.495C252.224 319.835 249.05 321.149 245.742 321.149ZM245.742 299.68C243.953 299.68 242.204 300.211 240.717 301.206C239.23 302.2 238.071 303.614 237.389 305.267C236.706 306.92 236.529 308.739 236.881 310.493C237.233 312.247 238.098 313.856 239.366 315.118C240.634 316.38 242.248 317.238 244.003 317.582C245.759 317.926 247.577 317.741 249.228 317.051C250.878 316.361 252.287 315.197 253.275 313.706C254.263 312.215 254.787 310.464 254.779 308.675C254.726 306.318 253.75 304.075 252.06 302.43C250.369 300.785 248.1 299.869 245.742 299.88V299.68Z" fill="#332D28"/>
<path d="M125.78 129.93C125.78 126.684 123.148 124.053 119.902 124.053C116.655 124.053 114.023 126.684 114.023 129.93V142.643C114.023 145.888 116.655 148.52 119.902 148.52C123.148 148.52 125.78 145.888 125.78 142.643V129.93Z" fill="#332D28"/>
<path d="M114.022 138.566C116.495 138.566 118.5 136.561 118.5 134.088C118.5 131.615 116.495 129.61 114.022 129.61C111.548 129.61 109.543 131.615 109.543 134.088C109.543 136.561 111.548 138.566 114.022 138.566Z" fill="white"/>
<path d="M155.729 129.93C155.729 126.684 153.097 124.053 149.851 124.053C146.604 124.053 143.973 126.684 143.973 129.93V142.643C143.973 145.888 146.604 148.52 149.851 148.52C153.097 148.52 155.729 145.888 155.729 142.643V129.93Z" fill="#332D28"/>
<path d="M143.975 138.566C146.448 138.566 148.453 136.561 148.453 134.088C148.453 131.615 146.448 129.61 143.975 129.61C141.501 129.61 139.496 131.615 139.496 134.088C139.496 136.561 141.501 138.566 143.975 138.566Z" fill="white"/>
<path d="M130.859 22.0666C136.534 22.0666 141.135 17.4665 141.135 11.7921C141.135 6.11763 136.534 1.51758 130.859 1.51758C125.183 1.51758 120.582 6.11763 120.582 11.7921C120.582 17.4665 125.183 22.0666 130.859 22.0666Z" fill="#289A7A"/>
<path d="M125.778 20.231C125.461 20.2499 125.145 20.1947 124.853 20.0697C124.562 19.9448 124.303 19.7536 124.099 19.5114C122.31 17.4702 121.324 14.8489 121.324 12.1353C121.324 9.42168 122.31 6.80045 124.099 4.75925C124.284 4.57189 124.506 4.42318 124.749 4.3217C124.993 4.22022 125.254 4.16797 125.518 4.16797C125.782 4.16797 126.043 4.22022 126.287 4.3217C126.531 4.42318 126.752 4.57189 126.938 4.75925C127.124 4.94164 127.272 5.15935 127.373 5.39962C127.474 5.63988 127.526 5.89788 127.526 6.1585C127.526 6.41912 127.474 6.67712 127.373 6.91738C127.272 7.15765 127.124 7.37536 126.938 7.55775C125.768 8.87458 125.123 10.5743 125.123 12.3352C125.123 14.0961 125.768 15.7958 126.938 17.1126C127.265 17.5269 127.414 18.0535 127.355 18.5778C127.295 19.102 127.03 19.5813 126.618 19.9111C126.369 20.087 126.081 20.1971 125.778 20.231Z" fill="#3FD2A9"/>
<path d="M130.856 23.5873C128.521 23.5952 126.236 22.9103 124.291 21.6192C122.346 20.3281 120.828 18.4889 119.929 16.3346C119.03 14.1803 118.791 11.8078 119.241 9.51739C119.692 7.22702 120.812 5.12185 122.46 3.46847C124.109 1.81509 126.21 0.687872 128.5 0.22956C130.789 -0.228752 133.163 0.00245648 135.321 0.893906C137.479 1.78536 139.323 3.29695 140.621 5.23727C141.919 7.17759 142.612 9.45935 142.612 11.7936C142.612 14.9146 141.375 17.9083 139.171 20.1189C136.968 22.3295 133.977 23.5767 130.856 23.5873ZM130.856 3.03831C129.112 3.03041 127.406 3.54052 125.953 4.50392C124.501 5.46731 123.367 6.84053 122.696 8.44928C122.025 10.058 121.848 11.8298 122.186 13.5396C122.524 15.2494 123.363 16.8203 124.595 18.0527C125.828 19.2852 127.399 20.1237 129.109 20.4617C130.82 20.7998 132.592 20.6223 134.201 19.9517C135.81 19.281 137.183 18.1475 138.147 16.695C139.111 15.2425 139.621 13.5365 139.613 11.7936C139.613 9.47157 138.69 7.24462 137.048 5.60268C135.406 3.96074 133.178 3.03831 130.856 3.03831Z" fill="#332D28"/>
<path d="M183.8 89.3936H146.691C144.638 89.3936 142.973 91.0492 142.973 93.0916C142.973 95.1339 144.638 96.7896 146.691 96.7896H183.8C185.853 96.7896 187.518 95.1339 187.518 93.0916C187.518 91.0492 185.853 89.3936 183.8 89.3936Z" fill="#303331"/>
<path d="M119.261 198.615H82.1524C80.0986 198.615 78.4336 200.271 78.4336 202.313C78.4336 204.356 80.0986 206.011 82.1524 206.011H119.261C121.314 206.011 122.979 204.356 122.979 202.313C122.979 200.271 121.314 198.615 119.261 198.615Z" fill="#6D6D6D"/>
<path d="M119.261 89.3936H82.1524C80.0986 89.3936 78.4336 91.0492 78.4336 93.0916C78.4336 95.1339 80.0986 96.7896 82.1524 96.7896H119.261C121.314 96.7896 122.979 95.1339 122.979 93.0916C122.979 91.0492 121.314 89.3936 119.261 89.3936Z" fill="#6D6D6D"/>
<path opacity="0.65" d="M139.175 345.575H102.066C100.013 345.575 98.3477 347.231 98.3477 349.273C98.3477 351.316 100.013 352.971 102.066 352.971H139.175C141.228 352.971 142.893 351.316 142.893 349.273C142.893 347.231 141.228 345.575 139.175 345.575Z" fill="white"/>
<path d="M207.031 214.245H63.5169C57.9916 214.245 52.6925 212.05 48.7855 208.144C44.8785 204.238 42.6836 198.94 42.6836 193.416V108.741C42.7048 103.231 44.909 97.9534 48.8137 94.0645C52.7185 90.1756 58.0054 87.9921 63.5169 87.9922H207.031C209.777 87.9658 212.501 88.4824 215.047 89.5124C217.592 90.5423 219.909 92.0652 221.864 93.9935C223.818 95.9218 225.372 98.2174 226.437 100.748C227.501 103.279 228.054 105.996 228.064 108.741V193.416C228.064 196.168 227.519 198.893 226.46 201.433C225.4 203.973 223.848 206.278 221.892 208.215C219.936 210.152 217.616 211.682 215.065 212.717C212.514 213.752 209.784 214.271 207.031 214.245ZM63.5169 90.9106C58.787 90.9106 54.2508 92.7892 50.9062 96.133C47.5616 99.4769 45.6826 104.012 45.6826 108.741V193.416C45.6826 198.145 47.5616 202.68 50.9062 206.024C52.5622 207.679 54.5283 208.993 56.692 209.889C58.8558 210.785 61.1749 211.246 63.5169 211.246H207.031C211.761 211.246 216.297 209.368 219.642 206.024C222.986 202.68 224.865 198.145 224.865 193.416V108.741C224.865 104.012 222.986 99.4769 219.642 96.133C216.297 92.7892 211.761 90.9106 207.031 90.9106H63.5169Z" fill="#332D28"/>
<path d="M200.559 200.294H70.0004C66.0977 200.294 62.3548 198.743 59.5952 195.984C56.8355 193.225 55.2852 189.483 55.2852 185.581V116.618C55.2851 112.713 56.8342 108.967 59.5927 106.201C62.3512 103.436 66.094 101.877 70.0004 101.866H80.3172C80.543 101.866 80.7665 101.911 80.9752 101.997C81.1838 102.083 81.3733 102.21 81.533 102.37C81.6927 102.529 81.8193 102.719 81.9057 102.927C81.9921 103.136 82.0366 103.36 82.0366 103.585C82.0366 103.811 81.9921 104.035 81.9057 104.243C81.8193 104.452 81.6927 104.641 81.533 104.801C81.3733 104.96 81.1838 105.087 80.9752 105.174C80.7665 105.26 80.543 105.304 80.3172 105.304H70.0004C67.0061 105.315 64.138 106.512 62.0244 108.632C59.9108 110.753 58.724 113.625 58.7241 116.618V185.581C58.7346 188.568 59.926 191.43 62.0385 193.542C64.1509 195.654 67.013 196.845 70.0004 196.855H200.559C203.549 196.855 206.418 195.668 208.532 193.553C210.647 191.439 211.835 188.571 211.835 185.581V116.618C211.835 113.625 210.648 110.753 208.535 108.632C206.421 106.512 203.553 105.315 200.559 105.304H96.1121C95.6561 105.304 95.2187 105.123 94.8963 104.801C94.5738 104.478 94.3927 104.041 94.3927 103.585C94.3927 103.129 94.5738 102.692 94.8963 102.37C95.2187 102.047 95.6561 101.866 96.1121 101.866H200.559C204.465 101.877 208.208 103.436 210.966 106.201C213.725 108.967 215.274 112.713 215.274 116.618V185.581C215.274 187.513 214.893 189.427 214.154 191.211C213.414 192.996 212.33 194.618 210.964 195.984C209.598 197.351 207.975 198.434 206.19 199.174C204.405 199.913 202.491 200.294 200.559 200.294Z" fill="#332D28"/>
<path d="M189.599 355.331H80.9536C78.0186 355.354 75.1768 354.301 72.9661 352.371C70.7553 350.441 69.3291 347.767 68.9575 344.856L63.6392 291.205C63.5874 290.967 63.5867 290.721 63.637 290.484C63.6873 290.246 63.7876 290.021 63.9312 289.825C64.0747 289.628 64.2583 289.465 64.4698 289.345C64.6813 289.224 64.9159 289.151 65.1581 289.128C65.4003 289.105 65.6446 289.134 65.8748 289.212C66.105 289.291 66.3159 289.417 66.4936 289.584C66.6713 289.75 66.8117 289.952 66.9055 290.176C66.9994 290.4 67.0446 290.642 67.0381 290.885L72.4763 344.457C72.7485 346.509 73.7593 348.392 75.3196 349.753C76.8799 351.114 78.8828 351.861 80.9536 351.853H189.599C191.682 351.858 193.695 351.101 195.257 349.723C196.819 348.346 197.822 346.443 198.076 344.377L206.593 260.422C206.541 256.798 205.064 253.341 202.483 250.798C199.901 248.254 196.422 246.828 192.798 246.829H77.7546C74.1236 246.871 70.6556 248.343 68.1029 250.925C65.5502 253.507 64.1188 256.991 64.119 260.621L66.0384 279.531C66.0604 279.757 66.0374 279.985 65.9708 280.202C65.9042 280.419 65.7953 280.621 65.6503 280.796C65.5053 280.97 65.3271 281.115 65.1261 281.22C64.925 281.326 64.7051 281.39 64.4789 281.41C64.255 281.438 64.0279 281.42 63.811 281.358C63.5941 281.296 63.392 281.191 63.2166 281.05C63.0412 280.908 62.8961 280.732 62.7901 280.533C62.6841 280.334 62.6193 280.116 62.5995 279.891L60.6801 260.781C60.6643 258.51 61.0968 256.258 61.9529 254.154C62.8089 252.05 64.0717 250.135 65.6689 248.52C67.266 246.904 69.1663 245.62 71.2607 244.74C73.3552 243.86 75.6027 243.401 77.8746 243.391H192.798C197.362 243.401 201.735 245.221 204.959 248.452C208.182 251.682 209.992 256.058 209.992 260.621L201.515 344.816C201.154 347.721 199.743 350.393 197.548 352.329C195.354 354.266 192.526 355.334 189.599 355.331Z" fill="#332D28"/>
<path d="M191.4 371.96H141.496V373.959H191.4V371.96Z" fill="#332D28"/>
<path d="M186.6 423.692H145.613V425.691H186.6V423.692Z" fill="#332D28"/>
<path d="M191.474 391.909H141.57V393.908H191.474V391.909Z" fill="#332D28"/>
<path d="M191.474 386.633H141.57V388.632H191.474V386.633Z" fill="#332D28"/>
<path d="M188.795 397.189H141.57V399.188H188.795V397.189Z" fill="#332D28"/>
<path d="M188.801 402.465H144.215V404.464H188.801V402.465Z" fill="#332D28"/>
<path d="M188.681 407.701H144.215V409.7H188.681V407.701Z" fill="#332D28"/>
<path d="M125.861 371.96H75.957V373.959H125.861V371.96Z" fill="#332D28"/>
<path d="M121.061 423.692H80.0742V425.691H121.061V423.692Z" fill="#332D28"/>
<path d="M125.978 391.909H76.0742V393.908H125.978V391.909Z" fill="#332D28"/>
<path d="M125.978 386.633H76.0742V388.632H125.978V386.633Z" fill="#332D28"/>
<path d="M123.259 397.189H76.0742V399.188H123.259V397.189Z" fill="#332D28"/>
<path d="M123.262 402.465H78.6758V404.464H123.262V402.465Z" fill="#332D28"/>
<path d="M123.142 407.701H78.6758V409.7H123.142V407.701Z" fill="#332D28"/>
<path opacity="0.65" d="M99.1606 419.31L95.8055 388.026C95.6195 386.292 94.0714 385.036 92.3476 385.22C90.6239 385.405 89.3773 386.961 89.5633 388.695L92.9184 419.979C93.1044 421.713 94.6525 422.97 96.3762 422.785C98.1 422.6 99.3466 421.044 99.1606 419.31Z" fill="white"/>
<path d="M150.253 421.936C151.07 421.936 151.732 421.274 151.732 420.457C151.732 419.64 151.07 418.978 150.253 418.978C149.436 418.978 148.773 419.64 148.773 420.457C148.773 421.274 149.436 421.936 150.253 421.936Z" fill="#332D28"/>
<path d="M82.8741 361.205C83.6912 361.205 84.3536 360.543 84.3536 359.726C84.3536 358.909 83.6912 358.247 82.8741 358.247C82.0569 358.247 81.3945 358.909 81.3945 359.726C81.3945 360.543 82.0569 361.205 82.8741 361.205Z" fill="#332D28"/>
<path d="M23.8155 309.635C24.6326 309.635 25.295 308.973 25.295 308.156C25.295 307.339 24.6326 306.677 23.8155 306.677C22.9983 306.677 22.3359 307.339 22.3359 308.156C22.3359 308.973 22.9983 309.635 23.8155 309.635Z" fill="#332D28"/>
<path d="M245.737 309.635C246.554 309.635 247.217 308.973 247.217 308.156C247.217 307.339 246.554 306.677 245.737 306.677C244.92 306.677 244.258 307.339 244.258 308.156C244.258 308.973 244.92 309.635 245.737 309.635Z" fill="#332D28"/>
<path d="M267.736 259.302C267.486 259.31 267.237 259.268 267.004 259.179C266.771 259.09 266.557 258.955 266.377 258.782C266.189 258.596 266.04 258.375 265.939 258.132C265.837 257.888 265.785 257.627 265.785 257.363C265.785 257.099 265.837 256.838 265.939 256.594C266.04 256.351 266.189 256.13 266.377 255.944L274.974 246.589C275.354 246.22 275.863 246.014 276.393 246.014C276.923 246.014 277.432 246.22 277.813 246.589C278.182 246.969 278.388 247.478 278.388 248.008C278.388 248.538 278.182 249.047 277.813 249.427L269.176 258.822C268.984 259 268.756 259.135 268.508 259.217C268.259 259.3 267.996 259.329 267.736 259.302Z" fill="#6D6D6D"/>
<path d="M296.048 286.647C295.804 286.652 295.562 286.608 295.336 286.519C295.109 286.43 294.903 286.297 294.728 286.127C294.541 285.941 294.392 285.72 294.29 285.477C294.189 285.233 294.137 284.972 294.137 284.708C294.137 284.444 294.189 284.183 294.29 283.939C294.392 283.696 294.541 283.474 294.728 283.289L303.325 273.894C303.699 273.527 304.202 273.322 304.725 273.322C305.248 273.322 305.751 273.527 306.124 273.894C306.312 274.08 306.461 274.301 306.562 274.544C306.664 274.788 306.716 275.049 306.716 275.313C306.716 275.577 306.664 275.838 306.562 276.082C306.461 276.325 306.312 276.546 306.124 276.732L297.527 286.127C297.121 286.487 296.59 286.673 296.048 286.647Z" fill="#303331"/>
<path d="M290.403 295.883C289.45 295.889 288.498 295.795 287.564 295.603L270.57 291.885C269.137 291.514 267.836 290.753 266.811 289.686C265.69 288.793 264.844 287.601 264.372 286.248L259.013 269.697C258.309 267.475 258.196 265.108 258.687 262.829C259.178 260.55 260.255 258.439 261.812 256.704L272.449 245.03C273.865 243.523 275.809 242.623 277.874 242.519C279.94 242.415 281.965 243.114 283.526 244.471C284.292 245.161 284.914 245.998 285.353 246.931C285.793 247.865 286.041 248.877 286.085 249.908C286.126 250.916 285.968 251.923 285.618 252.87C285.268 253.817 284.733 254.686 284.045 255.425L274.408 266.059L275.408 269.137C275.476 269.353 275.502 269.579 275.482 269.804C275.463 270.029 275.4 270.248 275.296 270.449C275.192 270.649 275.049 270.827 274.876 270.973C274.704 271.118 274.504 271.228 274.288 271.296C274.076 271.371 273.851 271.402 273.626 271.388C273.401 271.374 273.181 271.315 272.98 271.214C272.778 271.113 272.599 270.973 272.453 270.802C272.307 270.631 272.197 270.432 272.129 270.217L270.81 266.219C270.718 265.926 270.702 265.613 270.765 265.312C270.828 265.012 270.968 264.732 271.169 264.5L281.526 253.146C282.305 252.274 282.709 251.13 282.649 249.962C282.589 248.794 282.071 247.697 281.206 246.909C280.78 246.52 280.281 246.219 279.737 246.024C279.194 245.829 278.617 245.744 278.04 245.773C277.464 245.803 276.899 245.947 276.378 246.197C275.858 246.447 275.392 246.798 275.008 247.229L264.372 258.903C263.211 260.178 262.408 261.736 262.043 263.421C261.678 265.106 261.764 266.857 262.292 268.498L267.651 285.049C267.926 285.841 268.444 286.526 269.13 287.008C269.713 287.677 270.477 288.162 271.329 288.407L288.284 292.165C289.976 292.537 291.736 292.455 293.386 291.929C295.036 291.402 296.517 290.449 297.681 289.167L308.318 277.493C309.099 276.617 309.502 275.467 309.437 274.295C309.413 273.718 309.273 273.151 309.025 272.63C308.778 272.108 308.429 271.641 307.998 271.256C307.131 270.472 305.989 270.062 304.821 270.114C303.653 270.166 302.553 270.677 301.76 271.536L291.443 282.93C291.242 283.156 290.983 283.324 290.695 283.416C290.406 283.507 290.098 283.519 289.803 283.45L276.328 280.451C276.036 280.392 275.764 280.257 275.54 280.061C275.316 279.865 275.146 279.613 275.048 279.332L274.049 276.254C273.92 275.813 273.964 275.341 274.172 274.932C274.38 274.523 274.736 274.21 275.168 274.055C275.383 273.986 275.61 273.961 275.835 273.98C276.06 274 276.279 274.063 276.48 274.167C276.68 274.271 276.858 274.414 277.004 274.586C277.149 274.759 277.259 274.959 277.327 275.174L278.047 277.333L289.564 279.892L299.24 269.257C300.656 267.75 302.601 266.85 304.666 266.746C306.731 266.642 308.756 267.341 310.317 268.698C311.854 270.123 312.769 272.095 312.866 274.188C312.964 276.282 312.235 278.33 310.837 279.892L300.24 291.565C298.99 292.929 297.47 294.017 295.777 294.76C294.083 295.503 292.253 295.886 290.403 295.883Z" fill="#332D28"/>
<path d="M271.656 285.168C271.229 285.171 270.812 285.036 270.466 284.784C270.121 284.533 269.865 284.177 269.737 283.769L264.819 267.777C264.659 267.247 264.717 266.676 264.98 266.188C265.242 265.701 265.688 265.338 266.218 265.179C266.748 265.02 267.32 265.078 267.807 265.34C268.295 265.603 268.658 266.048 268.817 266.578L273.736 282.57C273.886 283.073 273.831 283.616 273.584 284.08C273.338 284.543 272.918 284.891 272.416 285.048C272.177 285.151 271.916 285.192 271.656 285.168Z" fill="#6D6D6D"/>
</svg>
