<svg width="59" height="37" viewBox="0 0 59 37" fill="none" xmlns="http://www.w3.org/2000/svg">
<path d="M41.0531 36.1062C38.5752 36.1062 36.2389 35.6283 34.0442 34.6726C31.8496 33.7168 29.9381 32.4248 28.3097 30.7965C26.6814 29.1681 25.3894 27.2651 24.4336 25.0874C23.4779 22.9111 23 20.5664 23 18.0531C23 15.5398 23.4779 13.195 24.4336 11.0188C25.3894 8.84106 26.6814 6.93805 28.3097 5.30973C29.9381 3.68142 31.8496 2.38938 34.0442 1.43363C36.2389 0.477877 38.5752 0 41.0531 0C43.7434 0 46.292 0.557168 48.6991 1.6715C51.1062 2.78726 53.1593 4.37168 54.8584 6.42478V1.38053H58.0442V12.1593H47.2655V8.97345H52.8407C51.3894 7.16814 49.6464 5.75221 47.6117 4.72566C45.5756 3.69911 43.3894 3.18584 41.0531 3.18584C36.9115 3.18584 33.3986 4.62796 30.5143 7.51221C27.6287 10.3979 26.1858 13.9115 26.1858 18.0531C26.1858 22.1947 27.6287 25.7076 30.5143 28.5919C33.3986 31.4775 36.9115 32.9204 41.0531 32.9204C44.7699 32.9204 48.0173 31.7168 50.7954 29.3097C53.5749 26.9027 55.2301 23.8584 55.7611 20.177H59C58.469 24.7434 56.4959 28.5402 53.0807 31.5674C49.6641 34.5933 45.6549 36.1062 41.0531 36.1062ZM47.3717 26.6018L39.4602 18.6903V7.43363H42.646V17.4159L49.6018 24.3717L47.3717 26.6018Z" fill="white"/>
<rect y="9" width="37" height="17" rx="5" fill="#141414"/>
<path d="M5.455 22V20.869L9.069 17.437C9.37233 17.151 9.59767 16.8997 9.745 16.683C9.89233 16.4663 9.98767 16.267 10.031 16.085C10.083 15.8943 10.109 15.7167 10.109 15.552C10.109 15.136 9.966 14.8153 9.68 14.59C9.394 14.356 8.97367 14.239 8.419 14.239C7.977 14.239 7.574 14.317 7.21 14.473C6.85467 14.629 6.547 14.8673 6.287 15.188L5.104 14.278C5.45933 13.8013 5.936 13.433 6.534 13.173C7.14067 12.9043 7.81667 12.77 8.562 12.77C9.22067 12.77 9.79267 12.8783 10.278 13.095C10.772 13.303 11.149 13.602 11.409 13.992C11.6777 14.382 11.812 14.8457 11.812 15.383C11.812 15.6777 11.773 15.9723 11.695 16.267C11.617 16.553 11.4697 16.8563 11.253 17.177C11.0363 17.4977 10.72 17.8573 10.304 18.256L7.197 21.207L6.846 20.57H12.163V22H5.455ZM12.818 19.933V18.763L17.303 12.9H19.11L14.69 18.763L13.845 18.503H21.06V19.933H12.818ZM17.81 22V19.933L17.862 18.503V16.67H19.448V22H17.81ZM29.797 14.98C30.3517 14.98 30.8457 15.0883 31.279 15.305C31.721 15.5217 32.0677 15.8553 32.319 16.306C32.5703 16.748 32.696 17.32 32.696 18.022V22H31.071V18.23C31.071 17.6147 30.9237 17.1553 30.629 16.852C30.343 16.5487 29.94 16.397 29.42 16.397C29.0387 16.397 28.7007 16.475 28.406 16.631C28.1113 16.787 27.8817 17.021 27.717 17.333C27.561 17.6363 27.483 18.022 27.483 18.49V22H25.858V12.354H27.483V16.93L27.132 16.358C27.3747 15.916 27.7257 15.578 28.185 15.344C28.653 15.1013 29.1903 14.98 29.797 14.98Z" fill="white"/>
</svg>
