<svg width="27" height="22" viewBox="0 0 27 22" fill="none" xmlns="http://www.w3.org/2000/svg">
<path d="M22.8712 2.36871C21.1409 1.57526 19.3153 1.00889 17.4397 0.683712C17.4072 0.683712 17.3747 0.691839 17.3503 0.724347C17.1133 1.14153 16.86 1.6901 16.6717 2.11542C14.6183 1.80388 12.5811 1.80388 10.5697 2.11542C10.3895 1.68198 10.12 1.14153 9.88161 0.724347C9.86536 0.691839 9.83285 0.675585 9.79221 0.683712C7.91573 1.00513 6.0896 1.57164 4.36068 2.36871C4.34443 2.36871 4.3363 2.38496 4.32817 2.40122C0.86743 7.57133 -0.0807177 12.6101 0.386584 17.5919C0.386584 17.6163 0.401483 17.6407 0.417737 17.6569C2.43339 19.1493 4.68767 20.2888 7.08457 21.0269C7.11708 21.035 7.15772 21.0269 7.17532 20.9944C7.69003 20.2901 8.14785 19.5546 8.54066 18.7771C8.56504 18.7283 8.54066 18.6796 8.4919 18.6633C7.77322 18.3849 7.07603 18.054 6.40597 17.6732C6.35721 17.6407 6.34908 17.5662 6.39784 17.5337C6.536 17.428 6.67551 17.321 6.81503 17.2072C6.82783 17.198 6.84289 17.1923 6.85861 17.1909C6.87434 17.1895 6.89016 17.1923 6.90442 17.1991C11.2727 19.1943 16.0012 19.1943 20.3194 17.1991C20.3438 17.1828 20.3844 17.191 20.4101 17.2072C20.5402 17.3129 20.6797 17.428 20.8273 17.5337C20.8761 17.5662 20.8761 17.6488 20.8273 17.6732C20.1636 18.066 19.4687 18.3924 18.7414 18.662C18.6913 18.6796 18.675 18.7365 18.6913 18.7771C19.0922 19.5546 19.55 20.2901 20.058 20.9944C20.0675 21.0085 20.0813 21.0193 20.0974 21.0251C20.1134 21.0309 20.1309 21.0316 20.1473 21.0269C22.5489 20.2941 24.8067 19.1542 26.8223 17.6569C26.8386 17.6407 26.8548 17.6163 26.8548 17.5919C27.4102 11.8326 25.9229 6.83449 22.9132 2.40122C22.9132 2.38496 22.8956 2.37683 22.8794 2.36871H22.8712ZM9.19488 14.5565C7.87831 14.5565 6.79742 13.3456 6.79742 11.8651C6.79742 10.3846 7.86205 9.17506 9.19488 9.17506C10.5277 9.17506 11.6167 10.3941 11.5923 11.8651C11.5923 13.3456 10.5277 14.5565 9.19488 14.5565ZM18.0614 14.5565C16.7449 14.5565 15.664 13.3456 15.664 11.8651C15.664 10.3846 16.7286 9.17506 18.0614 9.17506C19.3956 9.17506 20.4833 10.3941 20.4589 11.8651C20.4589 13.3456 19.4024 14.5565 18.0614 14.5565Z" fill="white"/>
</svg>
