<svg width="33" height="18" viewBox="0 0 33 18" fill="none" xmlns="http://www.w3.org/2000/svg">
<path d="M9.66493 17.7268C4.80906 17.7268 0.876953 13.7635 0.876953 8.86834C0.876953 3.96371 4.82396 0.00992722 9.72047 0.0234722C14.5763 0.0410807 18.5084 4.04362 18.4597 8.97128C18.4123 13.8746 14.4409 17.7511 9.66493 17.7349V17.7268ZM19.3171 8.86699C19.3171 7.20773 19.5473 5.5891 20.1379 4.02737C20.4562 3.16591 20.8788 2.36134 21.5019 1.66648C21.8202 1.30754 22.1873 1.00413 22.618 0.796892C23.535 0.367516 24.4046 0.478583 25.2173 1.04476C25.927 1.53103 26.4133 2.2164 26.8115 2.9668C27.3777 4.03414 27.7055 5.17463 27.9046 6.36387C28.1443 7.79016 28.1755 9.23406 28.0075 10.6698C27.8314 12.1842 27.4576 13.6362 26.7072 14.9744C26.3334 15.6517 25.8715 16.2585 25.2254 16.7055C24.2285 17.399 23.1124 17.3827 22.1317 16.6581C21.4545 16.1555 20.975 15.4851 20.593 14.7442C20.058 13.7229 19.7397 12.6311 19.5392 11.4988C19.3894 10.6268 19.315 9.74358 19.3171 8.85886V8.86699ZM32.0466 8.88189C32.0466 10.4125 31.96 11.9444 31.7216 13.4601C31.5997 14.1929 31.4642 14.9189 31.1703 15.6043C31.0823 15.8077 30.967 15.9982 30.8276 16.1704C30.6285 16.4183 30.3887 16.4102 30.1734 16.1786C29.9824 15.9713 29.87 15.7167 29.767 15.4607C29.4799 14.7035 29.3363 13.922 29.2252 13.1242C29.0472 11.8187 28.9567 10.5028 28.9543 9.18529C28.9381 7.54229 29.0166 5.91689 29.2726 4.29014C29.3918 3.556 29.5273 2.82999 29.8226 2.14462C29.8944 1.97666 29.9824 1.81006 30.0935 1.657C30.3481 1.30754 30.6515 1.30754 30.8994 1.657C31.043 1.86559 31.154 2.09721 31.2421 2.3356C31.5211 3.06161 31.6484 3.8269 31.7609 4.59219C31.9681 6.01171 32.0317 7.43122 32.0399 8.86699L32.0466 8.88189Z" fill="white"/>
</svg>
