<svg width="30" height="26" viewBox="0 0 30 26" fill="none" xmlns="http://www.w3.org/2000/svg">
<path d="M29.2687 13.0622C29.2719 12.6509 29.1938 12.2429 29.039 11.8617C28.8842 11.4806 28.6556 11.1338 28.3664 10.8412C28.0772 10.5486 27.7331 10.316 27.3538 10.1567C26.9744 9.99743 26.5674 9.91463 26.156 9.91303C25.3122 9.91303 24.5537 10.2449 23.9888 10.7921C21.846 9.2412 18.9189 8.23752 15.6533 8.10478L17.0795 1.33906L21.7187 2.35087C21.741 2.92566 21.9841 3.46971 22.3973 3.86984C22.8105 4.26997 23.3622 4.49536 23.9374 4.49911C25.1347 4.49911 26.156 3.4873 26.156 2.25064C26.156 1.01669 25.1605 0.00488281 23.9374 0.00488281C23.0691 0.00488281 22.3093 0.519592 21.9462 1.27405L16.7761 0.163359C16.6363 0.133598 16.4904 0.159859 16.3698 0.236501C16.3072 0.276783 16.2545 0.330519 16.2153 0.393789C16.1762 0.457058 16.1517 0.528266 16.1436 0.602216L14.5656 8.14677C11.2511 8.24565 8.2726 9.25745 6.1054 10.8327C5.52416 10.2692 4.74644 9.95392 3.93685 9.95367C2.20716 9.95367 0.824219 11.3718 0.824219 13.1042C0.824219 14.3978 1.59222 15.4841 2.65414 15.9731C2.60403 16.2805 2.57829 16.5961 2.57829 16.9266C2.57829 21.7852 8.16288 25.7403 15.0383 25.7403C21.9124 25.7403 27.497 21.8109 27.497 16.9266C27.497 16.6205 27.4726 16.2805 27.4211 15.9731C27.971 15.7162 28.4357 15.3072 28.7602 14.7945C29.0848 14.2817 29.2556 13.6867 29.2524 13.0798L29.2687 13.0636V13.0622ZM7.91908 15.3107C7.91908 14.0659 8.91328 13.0622 10.1364 13.0622C11.3609 13.0622 12.3551 14.0754 12.3551 15.3107C12.3551 16.546 11.3595 17.5565 10.1364 17.5565C8.91328 17.5822 7.91908 16.546 7.91908 15.3107ZM20.3263 21.28C18.7998 22.8309 15.8903 22.9298 15.0546 22.9298C14.2202 22.9298 11.2836 22.797 9.78286 21.28C9.67335 21.1698 9.61188 21.0208 9.61188 20.8655C9.61188 20.7102 9.67335 20.5612 9.78286 20.451C9.83592 20.3961 9.89947 20.3525 9.96975 20.3227C10.04 20.2929 10.1156 20.2775 10.1919 20.2775C10.2683 20.2775 10.3438 20.2929 10.4141 20.3227C10.4844 20.3525 10.5479 20.3961 10.601 20.451C11.5708 21.429 13.6039 21.769 15.0627 21.769C16.5228 21.769 18.5803 21.4371 19.5258 20.451C19.5788 20.3961 19.6424 20.3525 19.7127 20.3227C19.7829 20.2929 19.8585 20.2775 19.9348 20.2775C20.0112 20.2775 20.0867 20.2929 20.157 20.3227C20.2273 20.3525 20.2908 20.3961 20.3439 20.451C20.5471 20.6826 20.5471 21.047 20.3439 21.28H20.3263ZM19.9226 17.5822C19.3308 17.5772 18.7651 17.3379 18.3493 16.9168C17.9335 16.4956 17.7014 15.9269 17.704 15.3351C17.704 14.0998 18.6995 13.088 19.9226 13.088C21.1457 13.088 22.1413 14.0998 22.1413 15.3351C22.1413 16.5704 21.1457 17.5822 19.9226 17.5822Z" fill="white"/>
</svg>
