<svg width="35" height="28" viewBox="0 0 35 28" fill="none" xmlns="http://www.w3.org/2000/svg">
<path d="M11.5187 27.4709C24.2386 27.4709 31.1976 16.9349 31.1976 7.79199C31.1976 7.49942 31.1976 7.19466 31.1767 6.89861C32.5282 5.91808 33.697 4.70796 34.6301 3.32331C33.3689 3.88363 32.0302 4.25001 30.6595 4.41001C32.1042 3.54562 33.184 2.18404 33.6967 0.580457C32.3408 1.38706 30.8563 1.95435 29.3081 2.25752C28.2662 1.14603 26.8867 0.409472 25.3834 0.162126C23.8802 -0.0852201 22.3374 0.170476 20.9943 0.88954C19.6513 1.60861 18.5831 2.75083 17.9555 4.139C17.3279 5.52716 17.176 7.08365 17.5234 8.56696C14.7738 8.43081 12.0836 7.71721 9.62804 6.47262C7.17245 5.22802 5.00644 3.48031 3.27098 1.34323C2.65466 2.39707 2.33175 3.5967 2.33579 4.81752C2.33579 7.21382 3.55484 9.3367 5.41302 10.5766C4.3158 10.5468 3.24234 10.2503 2.28529 9.71286V9.80516C2.28529 13.1575 4.67114 15.9509 7.83195 16.5796C7.25204 16.7433 6.64251 16.8234 6.01383 16.8234C5.56627 16.8234 5.12915 16.7833 4.71294 16.7015C5.15654 18.0749 6.01722 19.2759 7.17521 20.1374C8.3332 20.9988 9.73092 21.4779 11.1739 21.508C8.72529 23.4297 5.7009 24.4707 2.58831 24.4633C2.03103 24.4633 1.48246 24.4337 0.944336 24.3728C4.1046 26.4043 7.78272 27.4834 11.5396 27.4814" fill="white"/>
</svg>
